<svg width="52" height="45" viewBox="0 0 52 45" fill="none" xmlns="http://www.w3.org/2000/svg">
<path d="M36.2011 9.30168V6.5827C36.2011 2.9617 33.384 0 29.9572 0H21.0743C17.648 0 14.8324 2.9617 14.8324 6.5827V9.30168H16.8436V6.5827C16.8436 4.07074 18.7563 2.01117 21.0743 2.01117H29.9572C32.2751 2.01117 34.1899 4.07074 34.1899 6.5827V9.30168H36.2011ZM47.6316 10.3073H4.15609C1.83809 10.3073 0 12.4106 0 14.9227V22.5H18.4777V18.7185C18.476 18.5878 18.5005 18.4582 18.5495 18.3371C18.5986 18.216 18.6713 18.1059 18.7635 18.0133C18.8556 17.9206 18.9653 17.8473 19.0861 17.7975C19.2069 17.7478 19.3364 17.7226 19.467 17.7235H31.4953C32.0508 17.7235 32.5559 18.1634 32.5559 18.7185V22.5H51.7877V14.9227C51.7877 12.4106 49.9496 10.3073 47.6316 10.3073ZM32.5559 28.1975C32.5559 28.7529 32.0508 29.162 31.4953 29.162H19.467C19.338 29.1663 19.2095 29.1445 19.0892 29.0979C18.9688 29.0513 18.8591 28.9808 18.7667 28.8907C18.6743 28.8006 18.6011 28.6928 18.5514 28.5736C18.5017 28.4545 18.4766 28.3266 18.4777 28.1975V24.5112H3.01676V40.4285C3.01676 42.9404 4.93102 45 7.2489 45H44.5377C46.8557 45 48.7709 42.9404 48.7709 40.4285V24.5112H32.5559V28.1975Z" fill="white"/>
<path d="M30.5447 19.7346H20.4888V27.1508H30.5447V19.7346Z" fill="white"/>
</svg>
