<svg width="48" height="48" viewBox="0 0 48 48" fill="none" xmlns="http://www.w3.org/2000/svg">
<g clip-path="url(#clip0_1005_453)">
<path d="M31.2472 30.6651C31.1562 30.3825 30.9778 30.1362 30.7377 29.9616C30.4975 29.7871 30.2081 29.6934 29.9112 29.6941H26.4832L25.4102 26.4181C25.3183 26.1368 25.1395 25.8919 24.8997 25.7185C24.6598 25.5451 24.3712 25.4522 24.0752 25.4531C23.7795 25.4527 23.4912 25.546 23.2517 25.7195C23.0123 25.893 22.8339 26.138 22.7422 26.4191L21.6672 29.6991H18.2912C17.993 29.6961 17.7016 29.7884 17.4594 29.9625C17.2173 30.1367 17.0371 30.3836 16.9452 30.6674C16.8532 30.9511 16.8542 31.2568 16.9482 31.5398C17.0421 31.8229 17.2239 32.0686 17.4672 32.2411L20.2322 34.2411L19.1542 37.4761C19.0565 37.7588 19.0519 38.0653 19.141 38.3507C19.2301 38.6362 19.4083 38.8856 19.6494 39.0624C19.8906 39.2393 20.182 39.3343 20.481 39.3335C20.7801 39.3327 21.071 39.2362 21.3112 39.0581L24.0762 37.0581L26.8562 39.0711C27.0956 39.2481 27.3852 39.3442 27.6829 39.3454C27.9806 39.3467 28.2709 39.2529 28.5117 39.0779C28.7525 38.9029 28.9313 38.6556 29.022 38.3721C29.1127 38.0885 29.1107 37.7834 29.0162 37.5011L27.9632 34.2471L30.7352 32.2401C30.977 32.0662 31.157 31.8197 31.2491 31.5365C31.3412 31.2532 31.3405 30.948 31.2472 30.6651ZM26.4412 32.8751C26.1997 33.0486 26.0197 33.2945 25.9273 33.5771C25.8349 33.8598 25.8348 34.1645 25.9272 34.4471L26.5522 36.3771L24.8992 35.1771C24.6599 35.0031 24.3716 34.9093 24.0757 34.9093C23.7798 34.9093 23.4915 35.0031 23.2522 35.1771L21.6372 36.3461L22.2692 34.4511C22.3639 34.1678 22.3655 33.8616 22.2737 33.5774C22.1819 33.2931 22.0017 33.0456 21.7592 32.8711L20.1282 31.6991H22.1002C22.3964 31.6999 22.6852 31.6067 22.9251 31.4329C23.165 31.2592 23.3436 31.0138 23.4352 30.7321L24.0772 28.7731L24.7192 30.7331C24.811 31.0145 24.9895 31.2595 25.2291 31.4331C25.4688 31.6066 25.7573 31.6998 26.0532 31.6991H28.0742L26.4412 32.8751Z" fill="white"/>
<path d="M12.0488 32.7922C12.049 35.0351 12.682 37.2325 13.8751 39.1318C15.0682 41.0311 16.7729 42.5552 18.7934 43.529C20.8138 44.5029 23.0681 44.8869 25.297 44.637C27.526 44.3871 29.6392 43.5133 31.3938 42.1162L30.1468 40.5522C28.3952 41.9577 26.2146 42.7198 23.9688 42.7112C22.007 42.7112 20.0893 42.1295 18.4581 41.0396C16.827 39.9496 15.5556 38.4005 14.8049 36.588C14.0541 34.7756 13.8577 32.7812 14.2404 30.8571C14.6231 28.933 15.5678 27.1656 16.955 25.7784C18.3422 24.3912 20.1096 23.4465 22.0337 23.0638C23.9578 22.6811 25.9522 22.8775 27.7647 23.6283C29.5771 24.379 31.1263 25.6503 32.2162 27.2815C33.3061 28.9127 33.8878 30.8304 33.8878 32.7922C33.8969 35.0636 33.1172 37.2678 31.6818 39.0282C31.5938 39.1382 31.5018 39.2462 31.4088 39.3512L32.9088 40.6742C33.0208 40.5469 33.1302 40.4179 33.2368 40.2872C34.4356 38.8043 35.2611 37.0555 35.644 35.1875C36.0269 33.3195 35.9561 31.387 35.4374 29.552C34.9188 27.7171 33.9675 26.0334 32.6633 24.6423C31.3592 23.2511 29.7403 22.1932 27.9427 21.5573C26.145 20.9214 24.221 20.7261 22.3322 20.9878C20.4434 21.2494 18.645 21.9604 17.0879 23.0611C15.5308 24.1618 14.2605 25.6199 13.3837 27.3132C12.5069 29.0065 12.0491 30.8854 12.0488 32.7922Z" fill="white"/>
<path d="M41.5079 1.657C41.634 1.51229 41.7158 1.33433 41.7435 1.14439C41.7712 0.954448 41.7437 0.760541 41.6642 0.585825C41.5847 0.411108 41.4566 0.262965 41.2952 0.159085C41.1337 0.0552056 40.9458 -2.09995e-05 40.7539 5.98989e-09H31.5539C31.411 -1.56288e-05 31.2698 0.0305908 31.1397 0.0897576C31.0096 0.148924 30.8938 0.235277 30.7999 0.343L18.6129 14.324L18.6209 14.331C18.46 14.5096 18.3697 14.7406 18.3669 14.981V18.666C15.0764 19.9691 12.3434 22.3789 10.6387 25.4804C8.9339 28.5818 8.36409 32.1806 9.02739 35.657C9.6907 39.1334 11.5456 42.2696 14.2725 44.5254C16.9995 46.7813 20.4278 48.0155 23.9669 48.0155C27.506 48.0155 30.9343 46.7813 33.6612 44.5254C36.3882 42.2696 38.2431 39.1334 38.9064 35.657C39.5697 32.1806 38.9999 28.5818 37.2951 25.4804C35.5903 22.3789 32.8573 19.9691 29.5669 18.666V15.356L41.5079 1.657ZM32.0059 2H38.5559L28.1149 13.981H21.5649L32.0059 2ZM37.1769 32.792C37.1769 35.4045 36.4022 37.9584 34.9507 40.1306C33.4992 42.3029 31.4362 43.9959 29.0225 44.9956C26.6088 45.9953 23.9529 46.2569 21.3906 45.7471C18.8282 45.2374 16.4746 43.9792 14.6274 42.1318C12.7801 40.2844 11.5221 37.9307 11.0126 35.3683C10.503 32.806 10.7647 30.1501 11.7646 27.7364C12.7646 25.3228 14.4577 23.2599 16.6301 21.8086C18.8024 20.3573 21.3563 19.5828 23.9689 19.583C27.4708 19.587 30.8282 20.9799 33.3043 23.4563C35.7805 25.9326 37.1732 29.2901 37.1769 32.792ZM23.9689 17.583C22.7552 17.5882 21.5466 17.7389 20.3689 18.032V15.981H27.5689V18.032C26.3912 17.7389 25.1825 17.5881 23.9689 17.583ZM18.6589 12.5L9.45288 2H16.0239L21.9889 8.2L23.4299 6.811L17.1699 0.307C17.0766 0.20992 16.9646 0.132687 16.8407 0.0799334C16.7168 0.0271796 16.5835 -8.39856e-06 16.4489 5.98989e-09H7.24888C7.05672 2.74712e-05 6.86864 0.0554192 6.70714 0.159547C6.54564 0.263676 6.41756 0.41213 6.33823 0.587149C6.25889 0.762167 6.23167 0.956337 6.2598 1.14642C6.28794 1.33651 6.37025 1.51447 6.49688 1.659L17.1549 13.817L18.6589 12.5Z" fill="white"/>
</g>
<defs>
<clipPath id="clip0_1005_453">
<rect width="48" height="48" fill="white"/>
</clipPath>
</defs>
</svg>
