<svg width="170" height="155" viewBox="0 0 170 155" fill="none" xmlns="http://www.w3.org/2000/svg">
<line y1="-0.678591" x2="7.8715" y2="-0.678591" transform="matrix(-0.735178 0.67832 -0.715239 -0.699313 135.858 0)" stroke="#FF8216" stroke-width="1.35718"/>
<line y1="-0.678591" x2="7.8715" y2="-0.678591" transform="matrix(-0.735178 0.67832 -0.715239 -0.699313 135.858 29.7434)" stroke="#FF8216" stroke-width="1.35718"/>
<line y1="-0.678591" x2="7.8715" y2="-0.678591" transform="matrix(-0.735178 0.67832 -0.715239 -0.699313 135.858 59.4789)" stroke="#FF8216" stroke-width="1.35718"/>
<line y1="-0.678591" x2="7.8715" y2="-0.678591" transform="matrix(-0.735178 0.67832 -0.715239 -0.699313 135.858 89.2223)" stroke="#FF8216" stroke-width="1.35718"/>
<line y1="-0.678591" x2="7.8715" y2="-0.678591" transform="matrix(-0.735178 0.67832 -0.715239 -0.699313 135.858 118.973)" stroke="#FF8216" stroke-width="1.35718"/>
<line y1="-0.678591" x2="7.8715" y2="-0.678591" transform="matrix(-0.735178 0.67832 -0.715239 -0.699313 168.376 0)" stroke="#FF8216" stroke-width="1.35718"/>
<line y1="-0.678591" x2="7.8715" y2="-0.678591" transform="matrix(-0.735178 0.67832 -0.715239 -0.699313 168.376 29.7434)" stroke="#FF8216" stroke-width="1.35718"/>
<line y1="-0.678591" x2="7.8715" y2="-0.678591" transform="matrix(-0.735178 0.67832 -0.715239 -0.699313 168.376 59.4789)" stroke="#FF8216" stroke-width="1.35718"/>
<line y1="-0.678591" x2="7.8715" y2="-0.678591" transform="matrix(-0.735178 0.67832 -0.715239 -0.699313 168.376 89.2223)" stroke="#FF8216" stroke-width="1.35718"/>
<line y1="-0.678591" x2="7.8715" y2="-0.678591" transform="matrix(-0.735178 0.67832 -0.715239 -0.699313 168.376 118.973)" stroke="#FF8216" stroke-width="1.35718"/>
<line y1="-0.678591" x2="7.8715" y2="-0.678591" transform="matrix(-0.735178 0.67832 -0.715239 -0.699313 5.78691 0)" stroke="#FF8216" stroke-width="1.35718"/>
<line y1="-0.678591" x2="7.8715" y2="-0.678591" transform="matrix(-0.735178 0.67832 -0.715239 -0.699313 5.78691 29.7434)" stroke="#FF8216" stroke-width="1.35718"/>
<line y1="-0.678591" x2="7.8715" y2="-0.678591" transform="matrix(-0.735178 0.67832 -0.715239 -0.699313 5.78691 59.4789)" stroke="#FF8216" stroke-width="1.35718"/>
<line y1="-0.678591" x2="7.8715" y2="-0.678591" transform="matrix(-0.735178 0.67832 -0.715239 -0.699313 5.78691 89.2223)" stroke="#FF8216" stroke-width="1.35718"/>
<line y1="-0.678591" x2="7.8715" y2="-0.678591" transform="matrix(-0.735178 0.67832 -0.715239 -0.699313 5.78691 118.973)" stroke="#FF8216" stroke-width="1.35718"/>
<line y1="-0.678591" x2="7.8715" y2="-0.678591" transform="matrix(-0.735178 0.67832 -0.715239 -0.699313 5.78691 148.709)" stroke="#FF8216" stroke-width="1.35718"/>
<line y1="-0.678591" x2="7.8715" y2="-0.678591" transform="matrix(-0.735178 0.67832 -0.715239 -0.699313 38.3055 0)" stroke="#FF8216" stroke-width="1.35718"/>
<line y1="-0.678591" x2="7.8715" y2="-0.678591" transform="matrix(-0.735178 0.67832 -0.715239 -0.699313 38.3055 29.7434)" stroke="#FF8216" stroke-width="1.35718"/>
<line y1="-0.678591" x2="7.8715" y2="-0.678591" transform="matrix(-0.735178 0.67832 -0.715239 -0.699313 38.3055 59.4789)" stroke="#FF8216" stroke-width="1.35718"/>
<line y1="-0.678591" x2="7.8715" y2="-0.678591" transform="matrix(-0.735178 0.67832 -0.715239 -0.699313 38.3055 89.2223)" stroke="#FF8216" stroke-width="1.35718"/>
<line y1="-0.678591" x2="7.8715" y2="-0.678591" transform="matrix(-0.735178 0.67832 -0.715239 -0.699313 38.3055 118.973)" stroke="#FF8216" stroke-width="1.35718"/>
<line y1="-0.678591" x2="7.8715" y2="-0.678591" transform="matrix(-0.735178 0.67832 -0.715239 -0.699313 38.3055 148.709)" stroke="#FF8216" stroke-width="1.35718"/>
<line y1="-0.678591" x2="7.8715" y2="-0.678591" transform="matrix(-0.735178 0.67832 -0.715239 -0.699313 70.8232 0)" stroke="#FF8216" stroke-width="1.35718"/>
<line y1="-0.678591" x2="7.8715" y2="-0.678591" transform="matrix(-0.735178 0.67832 -0.715239 -0.699313 70.8232 29.7434)" stroke="#FF8216" stroke-width="1.35718"/>
<line y1="-0.678591" x2="7.8715" y2="-0.678591" transform="matrix(-0.735178 0.67832 -0.715239 -0.699313 70.8232 59.4789)" stroke="#FF8216" stroke-width="1.35718"/>
<line y1="-0.678591" x2="7.8715" y2="-0.678591" transform="matrix(-0.735178 0.67832 -0.715239 -0.699313 70.8232 89.2223)" stroke="#FF8216" stroke-width="1.35718"/>
<line y1="-0.678591" x2="7.8715" y2="-0.678591" transform="matrix(-0.735178 0.67832 -0.715239 -0.699313 70.8232 118.973)" stroke="#FF8216" stroke-width="1.35718"/>
<line y1="-0.678591" x2="7.8715" y2="-0.678591" transform="matrix(-0.735178 0.67832 -0.715239 -0.699313 70.8232 148.709)" stroke="#FF8216" stroke-width="1.35718"/>
<line y1="-0.678591" x2="7.8715" y2="-0.678591" transform="matrix(-0.735178 0.67832 -0.715239 -0.699313 103.34 0)" stroke="#FF8216" stroke-width="1.35718"/>
<line y1="-0.678591" x2="7.8715" y2="-0.678591" transform="matrix(-0.735178 0.67832 -0.715239 -0.699313 103.34 29.7434)" stroke="#FF8216" stroke-width="1.35718"/>
<line y1="-0.678591" x2="7.8715" y2="-0.678591" transform="matrix(-0.735178 0.67832 -0.715239 -0.699313 103.34 59.4789)" stroke="#FF8216" stroke-width="1.35718"/>
<line y1="-0.678591" x2="7.8715" y2="-0.678591" transform="matrix(-0.735178 0.67832 -0.715239 -0.699313 103.34 89.2223)" stroke="#FF8216" stroke-width="1.35718"/>
<line y1="-0.678591" x2="7.8715" y2="-0.678591" transform="matrix(-0.735178 0.67832 -0.715239 -0.699313 103.34 118.973)" stroke="#FF8216" stroke-width="1.35718"/>
<line y1="-0.678591" x2="7.8715" y2="-0.678591" transform="matrix(-0.735178 0.67832 -0.715239 -0.699313 103.34 148.709)" stroke="#FF8216" stroke-width="1.35718"/>
<line y1="-0.678591" x2="7.8715" y2="-0.678591" transform="matrix(-0.735178 0.67832 -0.715239 -0.699313 135.858 148.709)" stroke="#FF8216" stroke-width="1.35718"/>
<line y1="-0.678591" x2="7.8715" y2="-0.678591" transform="matrix(-0.735178 0.67832 -0.715239 -0.699313 168.376 148.709)" stroke="#FF8216" stroke-width="1.35718"/>
</svg>
