<svg width="103" height="60" viewBox="0 0 103 60" fill="none" xmlns="http://www.w3.org/2000/svg">
<path d="M35.6473 45.9375H26.6745H24.831H15.8582C15.8582 45.9375 6.96002 46.4448 5.40137 55.5746H23.7441H27.7613H46.1041C44.5455 46.4446 35.6473 45.9375 35.6473 45.9375Z" fill="#9B5A40"/>
<path opacity="0.4" d="M25.8441 53.3308C13.6942 53.3308 8.5277 49.2812 8.5277 49.2812C7.09805 50.6986 5.88942 52.7124 5.40137 55.5723H23.7441H27.7613H46.1041C45.6977 53.192 44.7924 51.3978 43.676 50.046C43.676 50.046 37.994 53.3308 25.8441 53.3308Z" fill="#9B5A40"/>
<path d="M46.317 56.4115H5.37387C4.9431 56.4115 4.59082 55.9832 4.59082 55.4597C4.59082 54.9362 4.9431 54.5078 5.37387 54.5078H46.317C46.7478 54.5078 47.1001 54.9362 47.1001 55.4597C47.1001 55.9834 46.7478 56.4115 46.317 56.4115Z" fill="#683924"/>
<path opacity="0.4" d="M46.317 55.4603H5.37387C5.08632 55.4603 4.83643 55.2673 4.7002 54.9844C4.63254 55.125 4.59082 55.2864 4.59082 55.4603C4.59082 55.9838 4.9431 56.4122 5.37387 56.4122H46.317C46.7478 56.4122 47.1001 55.9838 47.1001 55.4603C47.1001 55.2864 47.0584 55.125 46.9907 54.9844C46.8545 55.2671 46.6046 55.4603 46.317 55.4603Z" fill="#9B5A40"/>
<path d="M48.2558 58.498H3.4344C2.96281 58.498 2.57715 58.0292 2.57715 57.456C2.57715 56.8829 2.96281 56.4141 3.4344 56.4141H48.2558C48.7272 56.4141 49.1131 56.8829 49.1131 57.456C49.1131 58.0292 48.7272 58.498 48.2558 58.498Z" fill="#FF8216"/>
<path opacity="0.4" d="M48.2558 57.4585H3.4344C3.11955 57.4585 2.84598 57.247 2.69691 56.9375C2.62271 57.0916 2.57715 57.2682 2.57715 57.4585C2.57715 58.0316 2.96281 58.5005 3.4344 58.5005H48.2558C48.7272 58.5005 49.1131 58.0316 49.1131 57.4585C49.1131 57.2682 49.0675 57.0916 48.9933 56.9375C48.8442 57.247 48.5707 57.4585 48.2558 57.4585Z" fill="#9B5A40"/>
<path d="M94.108 56.2617C94.108 56.2617 53.5281 35.6983 47.704 32.5797C41.8798 29.4612 44.1893 31.3187 41.6631 30.5747C39.6277 29.9751 40.5462 27.87 40.9802 27.0745C41.3237 26.2351 42.376 24.1948 44.113 25.4223C46.2687 26.9457 43.388 26.2897 49.4424 28.9236C55.4968 31.5575 96.7814 50.6389 96.7814 50.6389C96.7814 50.6389 100.828 51.8421 100.395 54.7124L100.146 55.3203L100.183 55.3381L100.008 55.6597L99.8687 55.9993L99.832 55.9815L99.5176 56.5576C97.5694 58.6946 94.108 56.2617 94.108 56.2617Z" fill="#7F4933"/>
<path opacity="0.57" d="M94.7323 54.9441C94.7323 54.9441 53.991 34.7203 48.1141 31.7127C42.2372 28.7051 44.6777 30.2874 42.2363 29.3649C40.2692 28.6216 40.7363 27.4665 40.9918 27.0454C41.1571 26.5806 41.7579 25.4901 43.5633 26.5738C45.804 27.9185 43.0538 26.9873 49.0557 29.7323C55.0573 32.4772 96.1805 51.8983 96.1805 51.8983C96.1805 51.8983 100.093 53.3832 100.206 55.1062L100.086 55.4428L100.123 55.4606L100.019 55.6308L99.9525 55.8188L99.9157 55.8011L99.7304 56.1058C98.3278 57.0952 94.7323 54.9441 94.7323 54.9441Z" fill="#9B5A40"/>
<path opacity="0.4" d="M44.6304 25.8272C43.0711 26.7764 42.5702 28.8819 42.4358 30.7495C42.2416 30.7242 41.9946 30.6723 41.6631 30.5747C39.6277 29.9751 40.5462 27.87 40.9802 27.0745C41.3237 26.2351 42.376 24.1948 44.113 25.4223C44.3341 25.5787 44.5003 25.7109 44.6304 25.8272Z" fill="#683924"/>
<path d="M34.3711 7.97945C34.3711 7.97945 36.2234 6.08212 35.3952 4.62634C35.2209 4.31999 35.0603 4.0546 35.0184 3.68997C34.8785 2.47705 36.0989 1.02605 37.3447 1.66313C37.7674 1.87935 40.7949 3.31237 43.2282 4.51914C45.6834 5.67971 48.6854 7.16667 49.1169 7.36401C50.3886 7.94622 50.0307 9.81465 49.0057 10.4636C48.6976 10.6586 48.3918 10.6982 48.046 10.7528C46.4023 11.0119 46.0949 13.6571 46.0949 13.6571L43.3644 12.9713L40.1686 11.4236L39.8055 11.2477L36.6097 9.70017L34.3711 7.97945Z" fill="#683924"/>
<path opacity="0.55" d="M34.3711 7.97103C34.3711 7.97103 36.2234 6.07369 35.3952 4.61792C35.3023 4.4545 35.215 4.302 35.1458 4.14062L48.5711 10.6422C48.403 10.6887 48.2303 10.7153 48.046 10.7444C46.4024 11.0034 46.0949 13.6487 46.0949 13.6487L43.3644 12.9629L36.6097 9.69174L34.3711 7.97103Z" fill="#683924"/>
<path opacity="0.55" d="M34.3711 7.98557C34.3711 7.98557 35.1199 7.21581 35.4518 6.28125L46.7359 11.7459C46.2212 12.5919 46.0947 13.663 46.0947 13.663L43.3642 12.9772L36.6095 9.70606L34.3711 7.98557Z" fill="#683924"/>
<path d="M35.3271 2.80702C35.3271 2.80702 36.1812 1.41042 37.6585 2.12579L48.7975 7.52008L48.7202 7.81711L37.5974 3.02871C37.5974 3.02871 36.1212 2.09438 35.3271 2.80702Z" fill="#9B5A40"/>
<path d="M22.0816 33.8281C22.0816 33.8281 21.774 36.4734 20.1305 36.7324C19.7848 36.787 19.479 36.8264 19.1709 37.0215C18.1458 37.6701 17.7879 39.5388 19.0597 40.121C19.4914 40.3186 22.4932 41.8053 24.9483 42.9659C27.3816 44.1726 30.4092 45.6057 30.8318 45.8219C32.0774 46.459 33.2978 45.008 33.1579 43.795C33.116 43.4304 32.9552 43.165 32.7811 42.8587C31.9529 41.4027 33.8052 39.5056 33.8052 39.5056L31.5668 37.7848L28.371 36.2371L28.0079 36.0612L24.8121 34.5134L22.0816 33.8281Z" fill="#683924"/>
<path opacity="0.55" d="M22.0816 33.8281C22.0816 33.8281 21.774 36.4734 20.1305 36.7324C19.9462 36.7615 19.7735 36.7882 19.6055 36.8346L33.0307 43.336C32.9615 43.1746 32.874 43.0221 32.7813 42.8587C31.9531 41.4027 33.8054 39.5056 33.8054 39.5056L31.567 37.7848L24.8123 34.5137L22.0816 33.8281Z" fill="#683924"/>
<path opacity="0.55" d="M22.0806 33.8281C22.0806 33.8281 21.9543 34.8992 21.4395 35.7453L32.7235 41.2099C33.0555 40.2753 33.8043 39.5056 33.8043 39.5056L31.5659 37.7848L24.8112 34.5137L22.0806 33.8281Z" fill="#683924"/>
<path d="M18.6833 37.8125C18.6833 37.8125 18.1381 39.3586 19.6154 40.074L30.7544 45.4683L30.9358 45.2216L20.2753 39.4608C20.2753 39.4608 18.6293 38.8836 18.6833 37.8125Z" fill="#9B5A40"/>
<path d="M20.3988 31.8383L24.6485 22.9004L27.5365 16.8267L31.7862 7.8888C31.7862 7.8888 32.7582 5.84489 34.5577 6.71617C35.2231 7.03846 36.6074 7.70876 38.0878 8.42573C40.6124 9.64843 43.4176 11.0068 43.4176 11.0068C44.8979 11.7238 46.2823 12.3941 46.9476 12.7164C48.7471 13.5879 47.7753 15.632 47.7753 15.632L43.5254 24.5699L40.6374 30.6436L36.3875 39.5815C36.3875 39.5815 35.4157 41.6254 33.6159 40.7539C32.9508 40.4316 31.5665 39.7613 30.0859 39.0444C30.0859 39.0444 27.2809 37.686 24.7561 36.4633C23.2757 35.7463 21.8914 35.0758 21.2261 34.7537C19.427 33.8825 20.3988 31.8383 20.3988 31.8383Z" fill="#9B5A40"/>
<path opacity="0.57" d="M30.7545 10.0547L27.537 16.8215L24.6491 22.8951L21.4316 29.6617L37.4208 37.4049L40.6382 30.6383L43.5262 24.5644L46.7436 17.7979L30.7545 10.0547Z" fill="#9B5A40"/>
<path opacity="0.55" d="M31.1435 9.25326L30.7549 10.0703L46.7428 17.8147L47.1314 16.9977L31.1435 9.25326Z" fill="#FF8216"/>
<path opacity="0.55" d="M30.9502 9.66174L30.7559 10.0703L46.7455 17.8147L46.9398 17.4062L30.9502 9.66174Z" fill="#FF8216"/>
<path opacity="0.55" d="M21.4324 29.6672L21.0439 30.4844L37.0334 38.2269L37.4219 37.4098L21.4324 29.6672Z" fill="#FF8216"/>
<path opacity="0.55" d="M21.4345 29.6696L21.2402 30.0781L37.2297 37.8224L37.424 37.4139L21.4345 29.6696Z" fill="#FF8216"/>
<path opacity="0.4" d="M21.8056 35.0342L21.2264 34.7538C19.4269 33.8823 20.3987 31.8382 20.3987 31.8382L31.7863 7.88867C31.7863 7.88867 32.7581 5.84476 34.5579 6.71627L35.1371 6.99668L21.8056 35.0342Z" fill="#683924"/>
<path opacity="0.4" d="M46.4936 12.4922L46.9485 12.7125C48.748 13.584 47.7762 15.6282 47.7762 15.6282L36.3884 39.5774C36.3884 39.5774 35.4165 41.6216 33.6168 40.7501L33.1621 40.5298L46.4936 12.4922Z" fill="#683924"/>
<path opacity="0.57" d="M36.8365 7.82082L23.5059 35.8594L24.6633 36.4198L37.9939 8.38127L36.8365 7.82082Z" fill="#9B5A40"/>
</svg>
