<svg width="2526" height="594" viewBox="0 0 2526 594" fill="none" xmlns="http://www.w3.org/2000/svg">
<path fill-rule="evenodd" clip-rule="evenodd" d="M383.81 100.391L186.91 297.291C178 306.2 173 318.283 173 330.881C173 343.479 178 355.561 186.91 364.471C195.82 373.378 207.9 378.381 220.5 378.381C233.1 378.381 245.18 373.378 254.09 364.471L297.33 321.231C306.24 312.324 318.32 307.32 330.92 307.32C343.52 307.32 355.6 312.324 364.51 321.231L383.81 340.541C392.72 349.45 397.72 361.533 397.72 374.131C397.72 386.729 392.72 398.811 383.81 407.721L254.09 537.441C249.68 541.852 244.44 545.352 238.68 547.739C232.92 550.127 226.74 551.356 220.5 551.356C214.26 551.356 208.08 550.127 202.32 547.739C196.56 545.352 191.32 541.852 186.91 537.441L13.91 364.441C5.00003 355.531 0 343.449 0 330.851C0 318.253 5.00003 306.17 13.91 297.261L297.33 13.9107C306.24 5.0037 318.32 -1e-09 330.92 0C343.52 0 355.6 5.0037 364.51 13.9107L383.81 33.2207C388.22 37.6301 391.72 42.8657 394.11 48.6284C396.5 54.391 397.73 60.5678 397.73 66.8057C397.73 73.0436 396.5 79.2204 394.11 84.9831C391.72 90.7458 388.22 95.9814 383.81 100.391Z" fill="#001253"/>
<path fill-rule="evenodd" clip-rule="evenodd" d="M435.96 493.54L632.86 296.64C637.27 292.23 640.77 286.994 643.16 281.232C645.55 275.469 646.77 269.292 646.77 263.055C646.77 256.817 645.55 250.641 643.16 244.878C640.77 239.116 637.27 233.88 632.86 229.47C623.95 220.563 611.87 215.559 599.27 215.559C586.67 215.559 574.59 220.563 565.68 229.47L522.44 272.71C518.03 277.121 512.79 280.62 507.03 283.008C501.27 285.395 495.09 286.624 488.85 286.624C482.62 286.624 476.44 285.395 470.68 283.008C464.92 280.62 459.68 277.121 455.27 272.71L435.96 253.4C427.05 244.49 422.05 232.408 422.05 219.81C422.05 207.212 427.05 195.129 435.96 186.22L565.69 56.4999C570.1 52.0887 575.34 48.5895 581.1 46.2021C586.86 43.8147 593.04 42.5859 599.27 42.5859C605.51 42.5859 611.69 43.8147 617.45 46.2021C623.21 48.5895 628.45 52.0887 632.86 56.4999L805.86 229.5C814.77 238.408 819.77 250.488 819.77 263.085C819.77 275.681 814.77 287.762 805.86 296.67L522.44 580.03C513.53 588.937 501.45 593.941 488.85 593.941C476.25 593.941 464.17 588.937 455.26 580.03L435.96 560.72C427.05 551.81 422.05 539.728 422.05 527.13C422.05 514.532 427.05 502.449 435.96 493.54Z" fill="#FD841F"/>
<path d="M1100.42 236.64V235.64C1100.39 231.401 1098.7 227.343 1095.71 224.34C1092.71 221.338 1088.66 219.632 1084.42 219.59H1013.12C1008.88 219.632 1004.83 221.338 1001.84 224.34C998.843 227.343 997.149 231.401 997.121 235.64V236.64C997.162 240.871 998.862 244.916 1001.85 247.908C1004.85 250.899 1008.89 252.598 1013.12 252.64H1076.3C1084 252.626 1091.61 254.224 1098.65 257.333C1105.69 260.442 1112 264.992 1117.17 270.69C1117.92 271.44 1118.43 272.2 1119.17 272.95C1125.82 281.068 1130.02 290.905 1131.3 301.318C1132.57 311.732 1130.86 322.293 1126.37 331.773C1121.88 341.254 1114.79 349.265 1105.92 354.874C1097.06 360.484 1086.78 363.461 1076.29 363.46H1021.42C1006.73 363.455 992.637 357.615 982.246 347.225C971.856 336.835 966.017 322.744 966.011 308.05H997.321C997.314 311.218 997.933 314.355 999.141 317.284C1000.35 320.212 1002.13 322.872 1004.36 325.113C1006.6 327.354 1009.26 329.131 1012.19 330.342C1015.12 331.553 1018.25 332.174 1021.42 332.17H1076.33C1082.72 332.17 1088.84 329.634 1093.35 325.12C1097.87 320.606 1100.4 314.484 1100.4 308.1C1100.4 301.716 1097.87 295.594 1093.35 291.08C1088.84 286.566 1082.72 284.03 1076.33 284.03H1013.12C1000.85 284.072 989.059 279.3 980.271 270.74C978.003 268.459 975.991 265.938 974.271 263.22C968.819 255.341 965.931 245.971 966.001 236.39V235.39C965.977 222.857 970.928 210.828 979.767 201.942C988.605 193.057 1000.61 188.042 1013.14 188H1084.35C1096.91 188.034 1108.94 193.038 1117.82 201.918C1126.7 210.798 1131.71 222.832 1131.74 235.39V236.39L1100.42 236.64Z" fill="#001253"/>
<path d="M1156.79 363.51V188H1188.14V363.51H1156.79Z" fill="#001253"/>
<path d="M1300.72 188.25C1317.45 188.202 1333.83 192.948 1347.95 201.926C1362.06 210.904 1373.3 223.737 1380.34 238.906C1387.39 254.076 1389.93 270.946 1387.69 287.519C1385.44 304.092 1378.49 319.674 1367.66 332.42C1366.16 334.18 1364.4 335.93 1362.66 337.69C1354.62 345.887 1345.02 352.393 1334.43 356.828C1323.84 361.262 1312.46 363.534 1300.98 363.51H1213.21V188L1300.72 188.25ZM1244.3 332.42H1300.72C1315.55 332.223 1329.71 326.192 1340.13 315.634C1350.55 305.075 1356.39 290.838 1356.39 276.005C1356.39 261.172 1350.55 246.935 1340.13 236.377C1329.71 225.818 1315.55 219.788 1300.72 219.59H1244.3V332.42Z" fill="#001253"/>
<path d="M1555.47 332.42L1571.52 363.77H1536.42L1520.42 332.42L1503.62 299.58L1502.87 298.07C1500.1 293.495 1496.21 289.712 1491.55 287.084C1486.89 284.457 1481.64 283.074 1476.29 283.07H1444.9V363.77H1413.55V188.25H1524.42C1530.62 188.238 1536.75 189.45 1542.47 191.817C1548.2 194.183 1553.4 197.658 1557.77 202.04C1566.59 211.005 1571.54 223.068 1571.56 235.64C1571.56 244.711 1568.96 253.592 1564.07 261.234C1559.18 268.876 1552.21 274.961 1543.98 278.77C1539.71 280.777 1535.12 282.048 1530.42 282.53L1555.47 332.42ZM1524.42 251.69C1526.68 251.696 1528.91 251.179 1530.94 250.18C1533.76 248.934 1536.15 246.897 1537.84 244.316C1539.52 241.735 1540.42 238.721 1540.42 235.64C1540.4 231.318 1538.69 227.176 1535.65 224.1C1534.17 222.647 1532.41 221.5 1530.49 220.727C1528.56 219.953 1526.5 219.566 1524.42 219.59H1444.9V251.94L1524.42 251.69Z" fill="#001253"/>
<path d="M1766.1 363.51H1730.99L1714.99 332.17L1676.62 256.95L1638.22 332.17L1622.22 363.51H1587.12L1603.12 332.17L1676.58 188L1750.05 332.17L1766.1 363.51Z" fill="#001253"/>
<path d="M2078.77 188V363.51H2047.42V283.03H1934.6V363.51H1903.26V188H1934.6V251.69H2047.42V188H2078.77Z" fill="#001253"/>
<path d="M2279.42 188V275.76C2279.42 299.035 2270.17 321.358 2253.72 337.816C2237.26 354.274 2214.94 363.52 2191.66 363.52C2168.38 363.52 2146.06 354.274 2129.6 337.816C2113.15 321.358 2103.9 299.035 2103.9 275.76V188H2135.24V275.76C2135.24 290.724 2141.18 305.074 2151.76 315.655C2162.35 326.236 2176.7 332.18 2191.66 332.18C2206.62 332.18 2220.97 326.236 2231.55 315.655C2242.14 305.074 2248.08 290.724 2248.08 275.76V188H2279.42Z" fill="#001253"/>
<path d="M2479.96 307.6C2479.94 322.421 2474.04 336.628 2463.56 347.108C2453.08 357.588 2438.87 363.486 2424.05 363.51H2304.42V188H2415.02C2427.58 188.029 2439.62 193.031 2448.5 201.912C2457.38 210.792 2462.39 222.829 2462.42 235.39C2462.46 244.465 2459.85 253.354 2454.9 260.96C2462.6 266.06 2468.92 272.989 2473.3 281.128C2477.67 289.266 2479.96 298.361 2479.96 307.6ZM2335.79 251.43H2415.27C2419.53 251.43 2423.61 249.74 2426.62 246.731C2429.62 243.722 2431.31 239.64 2431.31 235.385C2431.31 231.13 2429.62 227.049 2426.62 224.039C2423.61 221.03 2419.53 219.34 2415.27 219.34H2335.79V251.43ZM2424.05 331.92C2430.57 331.92 2436.82 329.331 2441.42 324.724C2446.03 320.116 2448.62 313.866 2448.62 307.35C2448.62 300.834 2446.03 294.584 2441.42 289.976C2436.82 285.369 2430.57 282.78 2424.05 282.78H2335.79V332.17H2424.05V331.92Z" fill="#001253"/>
</svg>
