<svg width="820" height="594" viewBox="0 0 820 594" fill="none" xmlns="http://www.w3.org/2000/svg">
<path fill-rule="evenodd" clip-rule="evenodd" d="M383.81 100.391L186.91 297.291C178 306.2 173 318.283 173 330.881C173 343.479 178 355.561 186.91 364.471C195.82 373.378 207.9 378.381 220.5 378.381C233.1 378.381 245.18 373.378 254.09 364.471L297.33 321.231C306.24 312.324 318.32 307.32 330.92 307.32C343.52 307.32 355.6 312.324 364.51 321.231L383.81 340.541C392.72 349.45 397.72 361.533 397.72 374.131C397.72 386.729 392.72 398.811 383.81 407.721L254.09 537.441C249.68 541.852 244.44 545.352 238.68 547.739C232.92 550.127 226.74 551.356 220.5 551.356C214.26 551.356 208.08 550.127 202.32 547.739C196.56 545.352 191.32 541.852 186.91 537.441L13.91 364.441C5.00003 355.531 0 343.449 0 330.851C0 318.253 5.00003 306.17 13.91 297.261L297.33 13.9107C306.24 5.0037 318.32 -1e-09 330.92 0C343.52 0 355.6 5.0037 364.51 13.9107L383.81 33.2207C388.22 37.6301 391.72 42.8657 394.11 48.6284C396.5 54.391 397.73 60.5678 397.73 66.8057C397.73 73.0436 396.5 79.2204 394.11 84.9831C391.72 90.7458 388.22 95.9814 383.81 100.391Z" fill="#001253"/>
<path fill-rule="evenodd" clip-rule="evenodd" d="M435.96 493.54L632.86 296.64C637.27 292.23 640.77 286.994 643.16 281.232C645.55 275.469 646.77 269.292 646.77 263.055C646.77 256.817 645.55 250.641 643.16 244.878C640.77 239.116 637.27 233.88 632.86 229.47C623.95 220.563 611.87 215.559 599.27 215.559C586.67 215.559 574.59 220.563 565.68 229.47L522.44 272.71C518.03 277.121 512.79 280.62 507.03 283.008C501.27 285.395 495.09 286.624 488.85 286.624C482.62 286.624 476.44 285.395 470.68 283.008C464.92 280.62 459.68 277.121 455.27 272.71L435.96 253.4C427.05 244.49 422.05 232.408 422.05 219.81C422.05 207.212 427.05 195.129 435.96 186.22L565.69 56.4999C570.1 52.0887 575.34 48.5895 581.1 46.2021C586.86 43.8147 593.04 42.5859 599.27 42.5859C605.51 42.5859 611.69 43.8147 617.45 46.2021C623.21 48.5895 628.45 52.0887 632.86 56.4999L805.86 229.5C814.77 238.408 819.77 250.488 819.77 263.085C819.77 275.681 814.77 287.762 805.86 296.67L522.44 580.03C513.53 588.937 501.45 593.941 488.85 593.941C476.25 593.941 464.17 588.937 455.26 580.03L435.96 560.72C427.05 551.81 422.05 539.728 422.05 527.13C422.05 514.532 427.05 502.449 435.96 493.54Z" fill="#FD841F"/>
</svg>
