<svg width="32" height="32" viewBox="0 0 32 32" fill="none" xmlns="http://www.w3.org/2000/svg">
<path d="M21.9876 3.00003C21.9838 3.00001 21.9801 3.00001 21.9763 3.00003C21.9294 3.0018 21.8827 3.00685 21.8365 3.01515H4.00534C3.87286 3.01465 3.7416 3.04033 3.61915 3.09073C3.4967 3.14112 3.38551 3.21521 3.29201 3.30871C3.1985 3.40221 3.12455 3.51327 3.07443 3.63544C3.02431 3.75762 2.99902 3.88848 3.00003 4.02046V24.9998C3.00003 27.1956 4.79901 28.9984 6.99861 28.9984H24.996C25.0634 28.9975 25.1305 28.9899 25.1963 28.9757C25.1988 28.9757 25.2014 28.9757 25.2039 28.9757C26.2247 28.9217 27.1863 28.4795 27.8917 27.7397C28.5971 26.9998 28.993 26.0183 28.9984 24.996V17.0064C28.9994 16.8747 28.9742 16.7442 28.9243 16.6223C28.8744 16.5003 28.8008 16.3894 28.7077 16.296C28.6146 16.2025 28.5039 16.1284 28.3819 16.0778C28.2599 16.0271 28.129 16.0011 27.9968 16.0011H23.0005V4.02046C23.0036 3.8869 22.9796 3.75409 22.9302 3.62991C22.8808 3.50573 22.8068 3.3927 22.7127 3.29753C22.6186 3.20236 22.5062 3.12699 22.3823 3.07589C22.2584 3.02478 22.1217 2.99899 21.9876 3.00003ZM8.00393 9.00924H17.9928C18.2595 9.00924 18.5152 9.11476 18.7037 9.30259C18.8922 9.49041 18.9982 9.74515 18.9982 10.0108C18.9982 10.2764 18.8922 10.5311 18.7037 10.719C18.5152 10.9068 18.2595 11.0123 17.9928 11.0123H8.00393C7.7373 11.0123 7.48159 10.9068 7.29305 10.719C7.10452 10.5311 6.9986 10.2764 6.9986 10.0108C6.9986 9.74515 7.10452 9.49041 7.29305 9.30259C7.48159 9.11476 7.7373 9.00924 8.00393 9.00924ZM8.00393 13.0078H17.9928C18.2595 13.0078 18.5152 13.1133 18.7037 13.3012C18.8922 13.489 18.9982 13.7437 18.9982 14.0094C18.9982 14.275 18.8922 14.5297 18.7037 14.7176C18.5152 14.9054 18.2595 15.0109 17.9928 15.0109H8.00393C7.7373 15.0109 7.48159 14.9054 7.29305 14.7176C7.10452 14.5297 6.9986 14.275 6.9986 14.0094C6.9986 13.7437 7.10452 13.489 7.29305 13.3012C7.48159 13.1133 7.7373 13.0078 8.00393 13.0078ZM8.00015 17.0064C7.99889 17.0064 8.00141 17.0064 8.00015 17.0064H17.9928C18.2584 17.0064 18.5132 17.1119 18.701 17.2998C18.8888 17.4876 18.9944 17.7423 18.9944 18.0079C18.9944 18.2736 18.8888 18.5283 18.701 18.7161C18.5132 18.904 18.2584 19.0095 17.9928 19.0095H8.00393C7.7383 19.023 7.47818 18.9305 7.28079 18.7522C7.0834 18.574 6.9649 18.3246 6.95137 18.059C6.93784 17.7933 7.03038 17.5332 7.20863 17.3358C7.38689 17.1384 7.63626 17.0199 7.90188 17.0064C7.93462 17.0048 7.96741 17.0048 8.00015 17.0064ZM23.0005 18.0042H26.9991V25.0036C26.9991 26.1298 26.1223 27.0066 24.996 27.0066C24.7325 27.0097 24.471 26.9599 24.227 26.8603C23.983 26.7606 23.7615 26.613 23.5755 26.4263C23.3895 26.2396 23.2427 26.0175 23.144 25.7731C23.0452 25.5288 22.9964 25.2671 23.0005 25.0036V18.0042ZM8.00015 21.005C7.99889 21.005 8.00141 21.005 8.00015 21.005H17.9928C18.2595 21.005 18.5152 21.1105 18.7037 21.2983C18.8922 21.4862 18.9982 21.7409 18.9982 22.0065C18.9982 22.2721 18.8922 22.5269 18.7037 22.7147C18.5152 22.9025 18.2595 23.0081 17.9928 23.0081H8.00393C7.7383 23.0216 7.47818 22.9291 7.28079 22.7508C7.0834 22.5725 6.9649 22.3232 6.95137 22.0575C6.93784 21.7919 7.03038 21.5318 7.20863 21.3344C7.38689 21.137 7.63626 21.0185 7.90188 21.005C7.93462 21.0034 7.96741 21.0034 8.00015 21.005Z" fill="#FF8216"/>
</svg>
