<svg width="100" height="100" viewBox="0 0 100 100" fill="none" xmlns="http://www.w3.org/2000/svg">
<path d="M92.1875 31.25H71.9219C71.9531 29.1094 71.9531 26.2656 71.9375 23.4375H84.375C84.7894 23.4375 85.1868 23.2729 85.4799 22.9799C85.7729 22.6868 85.9375 22.2894 85.9375 21.875V14.8438C85.9347 12.7017 85.132 10.638 83.6869 9.05696C82.2417 7.47593 80.2581 6.4916 78.125 6.29688V6.25H26.5625C24.4905 6.25 22.5034 7.0731 21.0382 8.53823C19.5731 10.0034 18.75 11.9905 18.75 14.0625V18.75H10.9375C8.8655 18.75 6.87836 19.5731 5.41323 21.0382C3.9481 22.5034 3.125 24.4905 3.125 26.5625V31.25C3.125 31.6644 3.28962 32.0618 3.58265 32.3549C3.87567 32.6479 4.2731 32.8125 4.6875 32.8125H9.375V84.375C9.375 86.447 10.1981 88.4341 11.6632 89.8993C13.1284 91.3644 15.1155 92.1875 17.1875 92.1875H53.125C53.1287 93.4296 53.6238 94.6197 54.502 95.498C55.3803 96.3762 56.5704 96.8713 57.8125 96.875H92.1875C93.4296 96.8713 94.6197 96.3762 95.498 95.498C96.3762 94.6197 96.8713 93.4296 96.875 92.1875V35.9375C96.8713 34.6954 96.3762 33.5053 95.498 32.627C94.6197 31.7488 93.4296 31.2537 92.1875 31.25ZM77.3438 9.375C78.7942 9.375 80.1851 9.95117 81.2107 10.9768C82.2363 12.0023 82.8125 13.3933 82.8125 14.8438V20.3125H71.9063V19.5781C71.8906 17.7031 71.875 16.0156 71.875 14.8438C71.875 13.3933 72.4512 12.0023 73.4768 10.9768C74.5024 9.95117 75.8933 9.375 77.3438 9.375ZM21.875 14.0625C21.8787 12.8204 22.3738 11.6303 23.252 10.752C24.1303 9.87376 25.3204 9.37871 26.5625 9.375H70.7187C69.4416 10.9107 68.7447 12.8464 68.75 14.8438C68.75 16.0312 68.7656 17.7188 68.7813 19.6094C68.8125 23.4844 68.8437 28.1719 68.7969 31.25H59.375V27.3438C59.3709 25.0658 58.4641 22.8824 56.8534 21.2716C55.2426 19.6609 53.0592 18.7541 50.7812 18.75C50.5156 18.75 50.2656 18.7656 50 18.7813L21.875 18.7656V14.0625ZM6.25 29.6875V26.5625C6.25371 25.3204 6.74876 24.1303 7.62703 23.252C8.50531 22.3738 9.69544 21.8787 10.9375 21.875H44.1563C42.8739 23.4077 42.1763 25.3454 42.1875 27.3438V29.6875H6.25ZM53.125 35.9375V89.0625H17.1875C15.9454 89.0588 14.7553 88.5637 13.877 87.6855C12.9988 86.8072 12.5037 85.6171 12.5 84.375V32.8125H43.75C44.1644 32.8125 44.5618 32.6479 44.8549 32.3549C45.1479 32.0618 45.3125 31.6644 45.3125 31.25V27.3438C45.3125 25.8933 45.8887 24.5023 46.9143 23.4768C47.9398 22.4512 49.3308 21.875 50.7812 21.875C52.2317 21.875 53.6226 22.4512 54.6482 23.4768C55.6738 24.5023 56.25 25.8933 56.25 27.3438V31.5313C55.3395 31.8556 54.551 32.4526 53.9918 33.241C53.4326 34.0294 53.13 34.9709 53.125 35.9375ZM93.75 92.1875C93.75 92.6019 93.5854 92.9993 93.2924 93.2924C92.9993 93.5854 92.6019 93.75 92.1875 93.75H57.8125C57.3981 93.75 57.0007 93.5854 56.7076 93.2924C56.4146 92.9993 56.25 92.6019 56.25 92.1875V81.25H93.75V92.1875ZM93.75 78.125H56.25V40.625H93.75V78.125ZM93.75 37.5H56.25V35.9375C56.25 35.5231 56.4146 35.1257 56.7076 34.8326C57.0007 34.5396 57.3981 34.375 57.8125 34.375H92.1875C92.6019 34.375 92.9993 34.5396 93.2924 34.8326C93.5854 35.1257 93.75 35.5231 93.75 35.9375V37.5Z" fill="#FF8216"/>
<path d="M75 82.8125C74.0729 82.8125 73.1666 83.0874 72.3958 83.6025C71.6249 84.1176 71.0241 84.8496 70.6693 85.7062C70.3145 86.5627 70.2217 87.5052 70.4026 88.4145C70.5834 89.3238 71.0299 90.159 71.6854 90.8146C72.341 91.4701 73.1762 91.9166 74.0855 92.0974C74.9948 92.2783 75.9373 92.1855 76.7938 91.8307C77.6504 91.4759 78.3825 90.8751 78.8975 90.1042C79.4126 89.3334 79.6875 88.4271 79.6875 87.5C79.6875 86.2568 79.1936 85.0645 78.3146 84.1854C77.4355 83.3064 76.2432 82.8125 75 82.8125ZM75 89.0625C74.691 89.0625 74.3889 88.9709 74.1319 88.7992C73.875 88.6275 73.6747 88.3835 73.5564 88.0979C73.4382 87.8124 73.4072 87.4983 73.4675 87.1952C73.5278 86.8921 73.6766 86.6137 73.8952 86.3951C74.1137 86.1766 74.3921 86.0278 74.6952 85.9675C74.9983 85.9072 75.3124 85.9382 75.5979 86.0564C75.8835 86.1747 76.1275 86.375 76.2992 86.6319C76.4709 86.8889 76.5625 87.191 76.5625 87.5C76.5625 87.9144 76.3979 88.3118 76.1049 88.6049C75.8118 88.8979 75.4144 89.0625 75 89.0625ZM75 45.3125C72.2187 45.3125 69.4999 46.1373 67.1873 47.6825C64.8747 49.2277 63.0723 51.4239 62.008 53.9935C60.9436 56.5631 60.6651 59.3906 61.2077 62.1185C61.7503 64.8463 63.0896 67.352 65.0563 69.3187C67.023 71.2854 69.5287 72.6247 72.2565 73.1673C74.9844 73.7099 77.8119 73.4314 80.3815 72.3671C82.9511 71.3027 85.1473 69.5003 86.6925 67.1877C88.2378 64.8751 89.0625 62.1563 89.0625 59.375C89.0567 55.6472 87.5733 52.0737 84.9373 49.4377C82.3013 46.8017 78.7278 45.3183 75 45.3125ZM75 70.3125C72.8368 70.3125 70.7221 69.671 68.9235 68.4692C67.1248 67.2674 65.7229 65.5592 64.8951 63.5606C64.0672 61.562 63.8506 59.3629 64.2727 57.2412C64.6947 55.1195 65.7364 53.1707 67.266 51.641C68.7957 50.1114 70.7445 49.0697 72.8662 48.6477C74.9879 48.2256 77.187 48.4422 79.1856 49.2701C81.1842 50.0979 82.8924 51.4998 84.0942 53.2984C85.296 55.0971 85.9375 57.2118 85.9375 59.375C85.9342 62.2748 84.7808 65.0549 82.7303 67.1053C80.6799 69.1558 77.8998 70.3092 75 70.3125Z" fill="#FF8216"/>
<path d="M81.25 62.5C81.2463 63.7421 80.7512 64.9322 79.873 65.8105C78.9947 66.6887 77.8046 67.1838 76.5625 67.1875V68.75H73.4375V67.1875C72.1954 67.1838 71.0053 66.6887 70.127 65.8105C69.2488 64.9322 68.7537 63.7421 68.75 62.5H71.875C71.875 62.9144 72.0396 63.3118 72.3326 63.6049C72.6257 63.8979 73.0231 64.0625 73.4375 64.0625H76.5625C76.9769 64.0625 77.3743 63.8979 77.6674 63.6049C77.9604 63.3118 78.125 62.9144 78.125 62.5C78.125 62.0856 77.9604 61.6882 77.6674 61.3951C77.3743 61.1021 76.9769 60.9375 76.5625 60.9375H73.4375C72.1943 60.9375 71.002 60.4436 70.1229 59.5646C69.2439 58.6855 68.75 57.4932 68.75 56.25C68.75 55.0068 69.2439 53.8145 70.1229 52.9354C71.002 52.0564 72.1943 51.5625 73.4375 51.5625V50H76.5625V51.5625C77.8046 51.5662 78.9947 52.0613 79.873 52.9395C80.7512 53.8178 81.2463 55.0079 81.25 56.25H78.125C78.125 55.8356 77.9604 55.4382 77.6674 55.1451C77.3743 54.8521 76.9769 54.6875 76.5625 54.6875H73.4375C73.0231 54.6875 72.6257 54.8521 72.3326 55.1451C72.0396 55.4382 71.875 55.8356 71.875 56.25C71.875 56.6644 72.0396 57.0618 72.3326 57.3549C72.6257 57.6479 73.0231 57.8125 73.4375 57.8125H76.5625C77.8046 57.8162 78.9947 58.3113 79.873 59.1895C80.7512 60.0678 81.2463 61.2579 81.25 62.5ZM32.8125 70.3125C36.1266 70.3088 39.3038 68.9906 41.6472 66.6472C43.9906 64.3038 45.3088 61.1266 45.3125 57.8125C45.3125 57.3981 45.1479 57.0007 44.8549 56.7076C44.5618 56.4146 44.1644 56.25 43.75 56.25H34.375V46.875C34.375 46.4606 34.2104 46.0632 33.9174 45.7701C33.6243 45.4771 33.2269 45.3125 32.8125 45.3125C29.4973 45.3125 26.3179 46.6295 23.9737 48.9737C21.6295 51.3179 20.3125 54.4973 20.3125 57.8125C20.3125 61.1277 21.6295 64.3071 23.9737 66.6513C26.3179 68.9955 29.4973 70.3125 32.8125 70.3125ZM31.25 48.5672V57.8125C31.25 58.2269 31.4146 58.6243 31.7076 58.9174C32.0007 59.2104 32.3981 59.375 32.8125 59.375H42.0578C41.7707 61.0714 41.0223 62.6562 39.8946 63.9556C38.7669 65.255 37.3033 66.2191 35.6642 66.7421C34.025 67.2651 32.2736 67.327 30.6016 66.9209C28.9297 66.5149 27.4017 65.6565 26.1851 64.4399C24.9685 63.2233 24.1101 61.6953 23.7041 60.0234C23.298 58.3514 23.3599 56.6 23.8829 54.9608C24.4059 53.3217 25.37 51.8581 26.6694 50.7304C27.9688 49.6027 29.5536 48.8543 31.25 48.5672Z" fill="#FF8216"/>
<path d="M37.5 40.625C37.0856 40.625 36.6882 40.7896 36.3951 41.0826C36.1021 41.3757 35.9375 41.7731 35.9375 42.1875V53.125C35.9375 53.5394 36.1021 53.9368 36.3951 54.2299C36.6882 54.5229 37.0856 54.6875 37.5 54.6875H48.4375C48.8519 54.6875 49.2493 54.5229 49.5424 54.2299C49.8354 53.9368 50 53.5394 50 53.125C49.9963 49.8109 48.6781 46.6337 46.3347 44.2903C43.9913 41.9469 40.8141 40.6287 37.5 40.625ZM39.0625 51.5625V43.8797C40.9808 44.2076 42.75 45.1228 44.1261 46.4989C45.5022 47.875 46.4174 49.6442 46.7453 51.5625H39.0625Z" fill="#FF8216"/>
<path d="M23.4375 75H17.1875V78.125H23.4375V75Z" fill="#FF8216"/>
<path d="M48.4375 75H26.5625V78.125H48.4375V75Z" fill="#FF8216"/>
<path d="M35.9375 81.25H17.1875V84.375H35.9375V81.25Z" fill="#FF8216"/>
</svg>
