<svg width="160" height="160" viewBox="0 0 160 160" fill="none" xmlns="http://www.w3.org/2000/svg">
<g clip-path="url(#clip0_4332_380)">
<g clip-path="url(#clip1_4332_380)">
<path d="M34.8106 60.1273C34.0225 60.9179 33.58 61.9887 33.58 63.105C33.58 64.2213 34.0225 65.292 34.8106 66.0826L34.8581 66.1329C35.6499 66.923 36.7228 67.3667 37.8413 67.3667C38.9599 67.3667 40.0328 66.923 40.8246 66.1329L77.3357 29.6329C77.7282 29.2419 78.0399 28.7774 78.2528 28.2659C78.4658 27.7544 78.576 27.206 78.577 26.652C78.5781 26.0979 78.47 25.5491 78.2589 25.0369C78.0478 24.5246 77.7379 24.0589 77.3469 23.6664C76.9559 23.2739 76.4914 22.9623 75.9799 22.7493C75.4684 22.5363 74.92 22.4262 74.366 22.4251C73.8119 22.4241 73.2631 22.5322 72.7509 22.7433C72.2386 22.9543 71.7729 23.2642 71.3804 23.6552C57.9251 37.0128 42.9922 51.8843 34.8106 60.1273ZM71.5536 96.848L108.054 60.348C108.846 59.5583 109.293 58.486 109.295 57.3671C109.297 56.2481 108.854 55.1742 108.065 54.3815C107.275 53.5888 106.203 53.1423 105.084 53.1402C103.965 53.1381 102.891 53.5806 102.098 54.3703C88.643 67.7307 73.71 82.5994 65.5257 90.8452C64.7383 91.6362 64.2963 92.7068 64.2963 93.8229C64.2963 94.9389 64.7383 96.0095 65.5257 96.8005L65.576 96.848C65.9679 97.2416 66.4336 97.5538 66.9465 97.7669C67.4594 97.98 68.0094 98.0897 68.5648 98.0897C69.1202 98.0897 69.6701 97.98 70.183 97.7669C70.6959 97.5538 71.1617 97.2416 71.5536 96.848ZM46.6486 66.0547L65.5173 84.9206C73.9614 76.4374 86.4391 64.0212 96.1765 54.3508L77.305 35.4849C66.1737 46.5435 54.4698 58.2083 46.6486 66.0547ZM34.7938 54.2055C43.2408 45.7195 55.7184 33.3033 65.453 23.6357L61.062 19.2307C59.6203 17.7922 57.667 16.9844 55.6304 16.9844C53.5939 16.9844 51.6405 17.7922 50.1989 19.2307L30.4475 38.9932C29.009 40.4349 28.2012 42.3883 28.2012 44.4248C28.2012 46.4613 29.009 48.4147 30.4475 49.8564L34.7938 54.2055ZM77.2575 96.6692L81.7994 101.211C83.2411 102.65 85.1944 103.457 87.231 103.457C89.2675 103.457 91.2209 102.65 92.6625 101.211L112.414 81.4597C113.853 80.0184 114.661 78.0649 114.661 76.0282C114.661 73.9914 113.853 72.0379 112.414 70.5966L107.92 66.1022C96.7882 77.158 85.0759 88.8229 77.2575 96.6692Z" fill="#7738C8"/>
<path d="M55.9195 80.4759L40.1178 96.2776L36.1681 92.3251L51.9558 76.5262L48.9949 73.5625L33.1933 89.3642C32.9987 89.1695 32.7677 89.0151 32.5134 88.9097C32.2592 88.8043 31.9867 88.7501 31.7114 88.7501C31.4362 88.7501 31.1637 88.8043 30.9094 88.9097C30.6551 89.0151 30.4241 89.1695 30.2296 89.3642L0.615054 118.99C0.420376 119.184 0.265941 119.415 0.160575 119.67C0.0552091 119.924 0.000976563 120.196 0.000976562 120.472C0.000976562 120.747 0.0552091 121.019 0.160575 121.274C0.265941 121.528 0.420376 121.759 0.615054 121.954L10.4894 131.831C10.883 132.222 11.4158 132.442 11.9712 132.442C12.5266 132.442 13.0594 132.222 13.453 131.831L43.0787 102.191C43.2734 101.996 43.4279 101.765 43.5332 101.511C43.6386 101.257 43.6928 100.984 43.6928 100.709C43.6928 100.434 43.6386 100.161 43.5332 99.9071C43.4279 99.6529 43.2734 99.4219 43.0787 99.2273L58.8804 83.4256L55.9195 80.4759ZM11.9726 127.387L5.05919 120.473L31.724 93.8111L38.6346 100.725L11.9726 127.387ZM136.732 147.442H134.637V135.571C134.637 135.015 134.417 134.482 134.024 134.09C133.631 133.697 133.098 133.476 132.542 133.476H76.6765C76.1209 133.476 75.588 133.697 75.1951 134.09C74.8023 134.482 74.5815 135.015 74.5815 135.571V147.442H72.4866C70.8202 147.444 69.2224 148.106 68.0441 149.285C66.8658 150.463 66.2031 152.061 66.2017 153.727V157.917C66.2017 158.473 66.4224 159.006 66.8153 159.399C67.2081 159.792 67.741 160.012 68.2966 160.012H140.922C141.478 160.012 142.011 159.792 142.404 159.399C142.797 159.006 143.017 158.473 143.017 157.917V153.727C143.016 152.061 142.353 150.463 141.175 149.285C139.997 148.106 138.399 147.444 136.732 147.442ZM78.7715 137.666H130.447V147.442H78.7715V137.666ZM138.827 155.822H70.3916V153.727C70.3916 153.172 70.6123 152.639 71.0052 152.246C71.3981 151.853 71.931 151.632 72.4866 151.632H136.732C137.288 151.632 137.821 151.853 138.214 152.246C138.607 152.639 138.827 153.172 138.827 153.727V155.822ZM127.88 118.361C128.057 118.572 128.274 118.746 128.518 118.873C128.762 119 129.029 119.078 129.303 119.102C129.578 119.125 129.854 119.095 130.116 119.012C130.379 118.929 130.622 118.795 130.833 118.618L139.316 111.498C139.732 111.138 139.99 110.629 140.034 110.081C140.078 109.532 139.904 108.989 139.551 108.567C139.197 108.146 138.692 107.88 138.144 107.828C137.596 107.776 137.05 107.941 136.623 108.289L128.137 115.409C127.712 115.767 127.446 116.278 127.398 116.832C127.35 117.386 127.524 117.936 127.88 118.361ZM123.408 115.146C123.649 115.241 123.904 115.289 124.163 115.289C124.586 115.289 124.999 115.161 125.348 114.922C125.698 114.683 125.966 114.343 126.118 113.948L129.277 105.775C129.477 105.256 129.464 104.679 129.239 104.171C129.014 103.662 128.596 103.264 128.077 103.064C127.559 102.864 126.982 102.877 126.473 103.102C125.965 103.327 125.567 103.745 125.366 104.264L122.207 112.44C122.108 112.696 122.061 112.97 122.067 113.245C122.074 113.52 122.135 113.791 122.247 114.042C122.358 114.293 122.518 114.52 122.718 114.71C122.917 114.899 123.152 115.048 123.408 115.146ZM130.269 123.322C130.362 123.799 130.618 124.228 130.992 124.536C131.366 124.845 131.836 125.014 132.322 125.015C132.458 125.014 132.593 125.001 132.727 124.976L141.325 123.286C141.595 123.233 141.851 123.127 142.081 122.975C142.31 122.823 142.507 122.627 142.66 122.398C142.813 122.17 142.92 121.914 142.975 121.644C143.029 121.374 143.03 121.096 142.977 120.826C142.924 120.556 142.818 120.3 142.666 120.07C142.514 119.841 142.318 119.644 142.089 119.491C141.861 119.338 141.604 119.231 141.335 119.176C141.065 119.122 140.787 119.121 140.517 119.174L131.92 120.864C131.375 120.972 130.895 121.291 130.585 121.752C130.276 122.213 130.162 122.777 130.269 123.322Z" fill="#011839"/>
</g>
<path d="M154.308 44.242C154.308 50.4443 152.469 56.5073 149.023 61.6643C145.578 66.8213 140.68 70.8407 134.95 73.2142C129.22 75.5877 122.914 76.2087 116.831 74.9987C110.748 73.7887 105.16 70.802 100.775 66.4164C96.3891 62.0307 93.4024 56.443 92.1924 50.3599C90.9824 44.2768 91.6034 37.9715 93.9769 32.2414C96.3504 26.5112 100.37 21.6136 105.527 18.1678C110.684 14.722 116.747 12.8828 122.949 12.8828C127.068 12.881 131.146 13.6909 134.952 15.2662C138.757 16.8415 142.215 19.1513 145.127 22.0637C148.04 24.976 150.35 28.4337 151.925 32.2392C153.5 36.0447 154.31 40.1234 154.308 44.242Z" fill="#6CC5EF"/>
<path d="M98.6554 24.421C94.0882 30.0199 91.5926 37.0232 91.5899 44.2486C91.5875 45.715 91.6891 47.1797 91.8941 48.6317H110.242C111.382 48.5682 112.454 48.0708 113.238 47.2415C114.023 46.4122 114.46 45.3141 114.46 44.1726C114.46 43.0311 114.023 41.933 113.238 41.1037C112.454 40.2744 111.382 39.7769 110.242 39.7134H104.712C104.275 39.7422 103.838 39.6811 103.426 39.5339C103.015 39.3868 102.638 39.1567 102.319 38.8579C101.999 38.5592 101.745 38.1981 101.571 37.797C101.397 37.396 101.308 36.9635 101.308 36.5264C101.308 36.0892 101.397 35.6567 101.571 35.2557C101.745 34.8546 101.999 34.4935 102.319 34.1948C102.638 33.896 103.015 33.6659 103.426 33.5188C103.838 33.3716 104.275 33.3105 104.712 33.3393H115.773C116.379 33.3731 116.986 33.2828 117.557 33.0739C118.127 32.8651 118.649 32.5421 119.09 32.1247C119.532 31.7074 119.883 31.2043 120.123 30.6464C120.364 30.0886 120.487 29.4875 120.487 28.8801C120.487 28.2727 120.364 27.6717 120.123 27.1138C119.883 26.5559 119.532 26.0529 119.09 25.6355C118.649 25.2181 118.127 24.8951 117.557 24.6863C116.986 24.4775 116.379 24.3872 115.773 24.421H98.6554ZM132.628 24.421H137.647C138.787 24.4845 139.859 24.9819 140.643 25.8112C141.428 26.6405 141.865 27.7387 141.865 28.8801C141.865 30.0216 141.428 31.1197 140.643 31.949C139.859 32.7783 138.787 33.2758 137.647 33.3393H132.628C132.021 33.3731 131.414 33.2828 130.844 33.0739C130.274 32.8651 129.752 32.5421 129.311 32.1247C128.869 31.7074 128.518 31.2043 128.278 30.6464C128.037 30.0886 127.913 29.4875 127.913 28.8801C127.913 28.2727 128.037 27.6717 128.278 27.1138C128.518 26.5559 128.869 26.0529 129.311 25.6355C129.752 25.2181 130.274 24.8951 130.844 24.6863C131.414 24.4775 132.021 24.3872 132.628 24.421ZM123.309 48.3967C122.947 48.3704 122.583 48.4191 122.241 48.5396C121.899 48.66 121.585 48.8498 121.319 49.0969C121.053 49.3441 120.841 49.6434 120.696 49.9761C120.552 50.3088 120.477 50.6678 120.477 51.0307C120.477 51.3936 120.552 51.7526 120.696 52.0853C120.841 52.418 121.053 52.7173 121.319 52.9644C121.585 53.2116 121.899 53.4013 122.241 53.5218C122.583 53.6423 122.947 53.6909 123.309 53.6647C124.005 53.6647 124.674 53.9415 125.166 54.4342C125.659 54.9268 125.936 55.595 125.936 56.2918C125.936 56.9885 125.659 57.6567 125.166 58.1494C124.674 58.6421 124.005 58.9189 123.309 58.9189H118.511C117.845 58.9671 117.222 59.2656 116.768 59.7543C116.313 60.2429 116.061 60.8855 116.061 61.5529C116.061 62.2203 116.313 62.8629 116.768 63.3515C117.222 63.8402 117.845 64.1386 118.511 64.1869H136.9C137.262 64.2131 137.626 64.1645 137.968 64.044C138.31 63.9235 138.624 63.7338 138.89 63.4866C139.156 63.2395 139.368 62.9402 139.513 62.6075C139.657 62.2748 139.732 61.9158 139.732 61.5529C139.732 61.19 139.657 60.831 139.513 60.4983C139.368 60.1656 139.156 59.8663 138.89 59.6191C138.624 59.372 138.31 59.1822 137.968 59.0618C137.626 58.9413 137.262 58.8926 136.9 58.9189C136.235 58.8706 135.612 58.5722 135.158 58.0835C134.703 57.5948 134.45 56.9522 134.45 56.2849C134.45 55.6175 134.703 54.9749 135.158 54.4862C135.612 53.9976 136.235 53.6991 136.9 53.6509H141.698C142.364 53.6026 142.987 53.3041 143.441 52.8155C143.896 52.3268 144.148 51.6842 144.148 51.0169C144.148 50.3495 143.896 49.7069 143.441 49.2182C142.987 48.7296 142.364 48.4311 141.698 48.3829L123.309 48.3967ZM109.8 61.546C109.803 62.0695 109.65 62.582 109.36 63.0184C109.071 63.4548 108.659 63.7954 108.176 63.997C107.693 64.1986 107.161 64.2521 106.647 64.1506C106.134 64.0492 105.662 63.7974 105.292 63.4272C104.921 63.057 104.67 62.5852 104.568 62.0716C104.467 61.558 104.52 61.0259 104.722 60.5428C104.923 60.0596 105.264 59.6473 105.7 59.3582C106.137 59.0691 106.649 58.9162 107.173 58.9189C107.868 58.9225 108.534 59.2005 109.026 59.6924C109.518 60.1842 109.796 60.8503 109.8 61.546ZM145.528 40.6537C145.531 41.1772 145.378 41.6896 145.089 42.1261C144.8 42.5625 144.388 42.9031 143.904 43.1047C143.421 43.3063 142.889 43.3598 142.376 43.2583C141.862 43.1568 141.39 42.905 141.02 42.5349C140.65 42.1647 140.398 41.6929 140.297 41.1793C140.195 40.6657 140.249 40.1336 140.45 39.6504C140.652 39.1673 140.992 38.755 141.429 38.4659C141.865 38.1767 142.378 38.0238 142.901 38.0266C143.598 38.0266 144.266 38.3033 144.759 38.796C145.252 39.2887 145.528 39.9569 145.528 40.6537Z" fill="#9AF39A"/>
<path d="M122.949 12.8828C121.926 12.8828 120.917 12.8828 119.907 13.0349C127.652 13.8005 134.836 17.4189 140.062 23.1866C145.287 28.9543 148.182 36.4591 148.182 44.242C148.182 52.025 145.287 59.5298 140.062 65.2975C134.836 71.0652 127.652 74.6835 119.907 75.4492C120.917 75.5459 121.926 75.6013 122.949 75.6013C131.266 75.6013 139.242 72.2973 145.123 66.4163C151.004 60.5354 154.308 52.559 154.308 44.242C154.308 35.925 151.004 27.9487 145.123 22.0677C139.242 16.1867 131.266 12.8828 122.949 12.8828Z" fill="#3DB3EA"/>
<path d="M159.134 58.073C159.285 58.0983 159.439 58.0983 159.59 58.073C159.876 58.0719 160.155 57.9822 160.387 57.8163C160.62 57.6504 160.796 57.4164 160.89 57.1466C161.028 56.7456 161.167 56.3447 161.277 55.9437C161.385 55.5935 161.35 55.2147 161.179 54.8906C161.008 54.5666 160.715 54.3237 160.365 54.2153C160.014 54.1073 159.636 54.1428 159.312 54.3139C158.988 54.485 158.745 54.7778 158.636 55.1279C158.526 55.5012 158.401 55.8746 158.277 56.2479C158.207 56.4235 158.174 56.6116 158.18 56.8004C158.186 56.9893 158.23 57.175 158.31 57.346C158.391 57.517 158.505 57.6698 158.647 57.7948C158.789 57.9199 158.954 58.0146 159.134 58.073ZM122.341 6.9138H123.558C123.924 6.9138 124.276 6.76813 124.535 6.50882C124.795 6.24952 124.94 5.89783 124.94 5.53112C124.94 5.16441 124.795 4.81272 124.535 4.55342C124.276 4.29411 123.924 4.14844 123.558 4.14844H122.313C121.947 4.14844 121.595 4.29411 121.336 4.55342C121.076 4.81272 120.931 5.16441 120.931 5.53112C120.931 5.89783 121.076 6.24952 121.336 6.50882C121.595 6.76813 121.947 6.9138 122.313 6.9138H122.341ZM110.408 8.98782C110.555 9.01456 110.705 9.01456 110.851 8.98782L111.971 8.62833C112.323 8.52015 112.618 8.27655 112.79 7.95112C112.962 7.6257 112.999 7.2451 112.89 6.89306C112.782 6.54102 112.539 6.24637 112.213 6.07393C111.888 5.9015 111.507 5.8654 111.155 5.97358L109.952 6.37456C109.648 6.485 109.392 6.69884 109.229 6.97876C109.066 7.25868 109.006 7.58692 109.061 7.90623C109.115 8.22553 109.28 8.51564 109.526 8.72594C109.772 8.93624 110.085 9.05339 110.408 9.05696V8.98782ZM158.636 33.2677C158.725 33.5616 158.909 33.8177 159.16 33.9954C159.41 34.1732 159.712 34.2625 160.019 34.2494C160.156 34.2478 160.291 34.2245 160.42 34.1803C160.77 34.072 161.063 33.8291 161.234 33.505C161.405 33.1809 161.441 32.8021 161.333 32.4519C161.222 32.051 161.084 31.65 160.945 31.249C160.817 30.915 160.563 30.644 160.239 30.493C159.914 30.3419 159.544 30.3225 159.206 30.4389C158.867 30.5553 158.587 30.7984 158.424 31.1171C158.261 31.4358 158.228 31.8052 158.332 32.1477C158.401 32.5211 158.526 32.8944 158.636 33.2677ZM90.8849 68.3187C91.0137 68.4904 91.1807 68.6298 91.3727 68.7258C91.5647 68.8218 91.7764 68.8718 91.9911 68.8718C92.2903 68.8718 92.5814 68.7747 92.8207 68.5952C93.1141 68.3752 93.308 68.0476 93.3599 67.6846C93.4117 67.3216 93.3173 66.9528 93.0972 66.6595C92.8622 66.3553 92.6271 66.0373 92.4059 65.7054C92.3006 65.5565 92.167 65.4298 92.0127 65.3326C91.8584 65.2353 91.6865 65.1694 91.5067 65.1386C91.327 65.1078 91.1429 65.1127 90.9651 65.153C90.7872 65.1933 90.619 65.2683 90.4701 65.3736C90.3212 65.4789 90.1946 65.6125 90.0973 65.7668C90 65.9211 89.9341 66.093 89.9033 66.2727C89.8725 66.4525 89.8774 66.6365 89.9177 66.8144C89.958 66.9923 90.033 67.1604 90.1383 67.3093L90.8849 68.3187ZM161.664 42.2551C161.298 42.2551 160.946 42.4008 160.687 42.6601C160.427 42.9194 160.282 43.2711 160.282 43.6378V44.8269C160.282 45.1936 160.427 45.5453 160.687 45.8046C160.946 46.0639 161.298 46.2096 161.664 46.2096C162.031 46.2096 162.383 46.0639 162.642 45.8046C162.901 45.5453 163.047 45.1936 163.047 44.8269V43.5549C163.026 43.2027 162.871 42.872 162.614 42.6304C162.357 42.3887 162.017 42.2545 161.664 42.2551ZM133.928 8.55919L135.048 8.91869C135.194 8.94542 135.344 8.94542 135.49 8.91869C135.814 8.91512 136.126 8.79797 136.373 8.58767C136.619 8.37737 136.784 8.08726 136.838 7.76796C136.892 7.44865 136.833 7.12041 136.67 6.84049C136.507 6.56057 136.251 6.34674 135.947 6.23629C135.546 6.09802 135.145 5.95975 134.744 5.84914C134.393 5.74114 134.015 5.77659 133.691 5.94771C133.366 6.11882 133.124 6.4116 133.015 6.76171C132.951 6.93934 132.924 7.12824 132.935 7.31678C132.947 7.50531 132.997 7.68947 133.083 7.8579C133.168 8.02633 133.287 8.17545 133.433 8.29606C133.578 8.41668 133.747 8.50623 133.928 8.55919ZM145.363 14.3941C145.602 14.5736 145.893 14.6706 146.192 14.6706C146.407 14.6706 146.619 14.6207 146.811 14.5247C147.003 14.4287 147.17 14.2893 147.298 14.1176C147.518 13.8242 147.613 13.4554 147.561 13.0924C147.509 12.7294 147.315 12.4018 147.022 12.1818L146.012 11.4352C145.864 11.3299 145.695 11.2549 145.518 11.2146C145.34 11.1743 145.156 11.1694 144.976 11.2002C144.796 11.231 144.624 11.2969 144.47 11.3942C144.316 11.4914 144.182 11.6181 144.077 11.767C143.971 11.9159 143.896 12.0841 143.856 12.2619C143.816 12.4398 143.811 12.6239 143.842 12.8036C143.873 12.9834 143.938 13.1553 144.036 13.3096C144.133 13.4638 144.26 13.5975 144.409 13.7028C144.74 13.924 145.072 14.1591 145.363 14.3941ZM99.7065 14.6706C100.006 14.6706 100.297 14.5736 100.536 14.3941L101.476 13.7028C101.777 13.4919 101.982 13.1702 102.045 12.8085C102.109 12.4468 102.026 12.0746 101.815 11.7739C101.604 11.4732 101.283 11.2686 100.921 11.2051C100.559 11.1415 100.187 11.2243 99.8862 11.4352L98.8768 12.1818C98.7316 12.2908 98.6092 12.4273 98.5167 12.5835C98.4242 12.7397 98.3633 12.9127 98.3377 13.0924C98.312 13.2722 98.322 13.4552 98.367 13.6311C98.4121 13.807 98.4914 13.9723 98.6003 14.1176C98.7291 14.2893 98.8961 14.4287 99.0881 14.5247C99.2801 14.6207 99.4918 14.6706 99.7065 14.6706ZM153.493 22.787C153.621 22.9676 153.791 23.1146 153.989 23.2157C154.186 23.3168 154.405 23.3689 154.627 23.3677C154.913 23.3699 155.193 23.2829 155.429 23.1188C155.578 23.014 155.705 22.8807 155.803 22.7264C155.901 22.5722 155.967 22.4001 155.998 22.2201C156.029 22.0401 156.024 21.8558 155.983 21.6778C155.942 21.4998 155.866 21.3317 155.76 21.1831L155.014 20.1737C154.905 20.0285 154.768 19.9061 154.612 19.8136C154.456 19.7211 154.283 19.6602 154.103 19.6345C153.923 19.6089 153.74 19.6188 153.564 19.6639C153.389 19.709 153.223 19.7882 153.078 19.8972C152.933 20.0061 152.81 20.1426 152.718 20.2989C152.625 20.4551 152.564 20.628 152.539 20.8078C152.513 20.9875 152.523 21.1706 152.568 21.3465C152.613 21.5224 152.692 21.6877 152.801 21.8329C153.036 22.1233 153.272 22.4551 153.493 22.787ZM87.2623 55.2247C87.1541 54.8727 86.9105 54.578 86.5851 54.4056C86.2597 54.2331 85.8791 54.197 85.5271 54.3052C85.175 54.4134 84.8804 54.657 84.7079 54.9824C84.5355 55.3078 84.4994 55.6884 84.6076 56.0405C84.732 56.4415 84.8703 56.8424 85.0085 57.2434C85.1029 57.5132 85.2785 57.7472 85.5112 57.9131C85.744 58.079 86.0224 58.1687 86.3083 58.1698C86.4597 58.1898 86.6131 58.1898 86.7646 58.1698C87.1109 58.0504 87.3958 57.7984 87.5565 57.4692C87.7173 57.1399 87.7407 56.7604 87.6218 56.4138C87.4974 55.9713 87.3729 55.598 87.2623 55.2247ZM122.949 84.344H123.572C123.938 84.344 124.29 84.1983 124.549 83.939C124.809 83.6797 124.954 83.328 124.954 82.9613C124.954 82.5946 124.809 82.2429 124.549 81.9836C124.29 81.7243 123.938 81.5786 123.572 81.5786H122.369C122.002 81.5786 121.65 81.7243 121.391 81.9836C121.132 82.2429 120.986 82.5946 120.986 82.9613C120.986 83.328 121.132 83.6797 121.391 83.939C121.65 84.1983 122.002 84.344 122.369 84.344H122.949ZM111.971 79.9332L110.851 79.5737C110.508 79.4698 110.139 79.5028 109.82 79.6657C109.502 79.8286 109.258 80.1087 109.142 80.4472C109.026 80.7857 109.045 81.1561 109.196 81.4805C109.347 81.805 109.618 82.0582 109.952 82.187C110.353 82.3253 110.754 82.4635 111.155 82.5741C111.285 82.6168 111.42 82.6401 111.556 82.6433C111.923 82.6983 112.296 82.6054 112.594 82.3849C112.893 82.1645 113.091 81.8347 113.146 81.468C113.201 81.1013 113.108 80.7277 112.888 80.4295C112.667 80.1313 112.338 79.9329 111.971 79.8779V79.9332ZM155.014 68.3187L155.76 67.3093C155.866 67.1604 155.941 66.9923 155.981 66.8144C156.021 66.6365 156.026 66.4525 155.995 66.2727C155.965 66.093 155.899 65.9211 155.801 65.7668C155.704 65.6125 155.577 65.4789 155.429 65.3736C155.28 65.2683 155.111 65.1933 154.934 65.153C154.756 65.1127 154.572 65.1078 154.392 65.1386C154.212 65.1694 154.04 65.2353 153.886 65.3326C153.732 65.4298 153.598 65.5565 153.493 65.7054C153.272 66.0373 153.036 66.3415 152.801 66.6595C152.581 66.9528 152.487 67.3216 152.539 67.6846C152.591 68.0476 152.785 68.3752 153.078 68.5952C153.317 68.7747 153.608 68.8718 153.908 68.8718C154.122 68.8718 154.334 68.8218 154.526 68.7258C154.718 68.6298 154.885 68.4904 155.014 68.3187ZM99.8862 77.0572C100.121 77.2213 100.401 77.3083 100.688 77.3061C100.91 77.3073 101.129 77.2552 101.326 77.1541C101.523 77.053 101.693 76.906 101.822 76.7254C101.927 76.5759 102.002 76.4071 102.042 76.2285C102.081 76.05 102.085 75.8654 102.053 75.6854C102.021 75.5053 101.954 75.3334 101.854 75.1797C101.755 75.0259 101.627 74.8934 101.476 74.7896L100.536 74.0983C100.391 73.9894 100.226 73.9101 100.05 73.865C99.8737 73.82 99.6907 73.81 99.5109 73.8357C99.3312 73.8613 99.1582 73.9222 99.002 74.0147C98.8457 74.1072 98.7093 74.2296 98.6003 74.3748C98.4914 74.5201 98.4121 74.6854 98.367 74.8613C98.322 75.0372 98.312 75.2202 98.3377 75.4C98.3633 75.5797 98.4242 75.7527 98.5167 75.9089C98.6092 76.0652 98.7316 76.2016 98.8768 76.3106L99.8862 77.0572ZM134.329 82.6433C134.47 82.6415 134.61 82.6182 134.744 82.5741C135.145 82.4635 135.546 82.3253 135.947 82.187C136.124 82.133 136.29 82.0438 136.432 81.9246C136.575 81.8054 136.692 81.6586 136.776 81.4931C136.861 81.3277 136.911 81.1468 136.924 80.9614C136.938 80.776 136.913 80.5899 136.853 80.4142C136.792 80.2384 136.697 80.0766 136.573 79.9385C136.448 79.8004 136.297 79.6888 136.129 79.6104C135.96 79.5319 135.778 79.4882 135.592 79.4819C135.406 79.4756 135.221 79.5069 135.048 79.5737L133.928 79.9332C133.561 79.9864 133.231 80.1831 133.009 80.48C132.787 80.7769 132.692 81.1497 132.746 81.5164C132.799 81.8831 132.995 82.2137 133.292 82.4354C133.589 82.6571 133.962 82.7518 134.329 82.6986V82.6433ZM84.2342 46.2373C84.601 46.2373 84.9526 46.0916 85.2119 45.8323C85.4713 45.573 85.6169 45.2213 85.6169 44.8546V43.6931C85.6169 43.3264 85.4713 42.9747 85.2119 42.7154C84.9526 42.4561 84.601 42.3105 84.2342 42.3105C83.8675 42.3105 83.5158 42.4561 83.2565 42.7154C82.9972 42.9747 82.8516 43.3264 82.8516 43.6931V44.9652C82.8794 45.3124 83.0373 45.6363 83.2937 45.8722C83.55 46.108 83.8859 46.2384 84.2342 46.2373ZM146.012 77.0572L147.022 76.3106C147.315 76.0906 147.509 75.763 147.561 75.4C147.613 75.037 147.518 74.6682 147.298 74.3748C147.078 74.0815 146.751 73.8875 146.388 73.8357C146.025 73.7838 145.656 73.8783 145.363 74.0983C145.045 74.3334 144.74 74.5684 144.409 74.7896C144.259 74.8944 144.132 75.0278 144.034 75.1821C143.936 75.3363 143.87 75.5084 143.839 75.6884C143.808 75.8683 143.813 76.0526 143.854 76.2306C143.895 76.4086 143.971 76.5768 144.077 76.7254C144.205 76.906 144.375 77.053 144.573 77.1541C144.77 77.2552 144.989 77.3073 145.211 77.3061C145.497 77.3083 145.777 77.2213 146.012 77.0572ZM91.2721 23.3677C91.4938 23.3689 91.7125 23.3168 91.9099 23.2157C92.1072 23.1146 92.2773 22.9676 92.4059 22.787C92.6271 22.4551 92.8622 22.1371 93.0972 21.8329C93.3173 21.5396 93.4117 21.1708 93.3599 20.8078C93.308 20.4448 93.1141 20.1172 92.8207 19.8972C92.5273 19.6772 92.1586 19.5827 91.7955 19.6345C91.4325 19.6864 91.105 19.8803 90.8849 20.1737L90.1383 21.1831C90.0322 21.3317 89.9566 21.4998 89.9158 21.6778C89.8751 21.8558 89.87 22.0401 89.9008 22.2201C89.9317 22.4001 89.9979 22.5722 90.0956 22.7264C90.1933 22.8807 90.3206 23.014 90.4701 23.1188C90.7052 23.2829 90.9854 23.3699 91.2721 23.3677ZM85.534 34.1803C85.6631 34.2245 85.7985 34.2478 85.9349 34.2494C86.2417 34.2625 86.5441 34.1732 86.7944 33.9954C87.0448 33.8177 87.2289 33.5616 87.3176 33.2677C87.4282 32.8944 87.5527 32.5211 87.6771 32.1477C87.781 31.8052 87.748 31.4358 87.5851 31.1171C87.4222 30.7984 87.1421 30.5553 86.8036 30.4389C86.4652 30.3225 86.0948 30.3419 85.7703 30.493C85.4458 30.644 85.1926 30.915 85.0639 31.249C84.9256 31.65 84.7873 32.051 84.6629 32.4519C84.553 32.7967 84.5827 33.1708 84.7456 33.4939C84.9085 33.8171 85.1915 34.0635 85.534 34.1803Z" fill="#16244D"/>
<path d="M90.208 44.2419C90.208 50.7176 92.1283 57.0479 95.726 62.4323C99.3237 67.8167 104.437 72.0133 110.42 74.4915C116.403 76.9696 122.986 77.618 129.338 76.3547C135.689 75.0913 141.523 71.973 146.102 67.3939C150.681 62.8149 153.799 56.9808 155.063 50.6295C156.326 44.2782 155.678 37.6949 153.199 31.7121C150.721 25.7293 146.525 20.6157 141.14 17.018C135.756 13.4203 129.426 11.5 122.95 11.5C114.268 11.5073 105.945 14.9593 99.806 21.098C93.6673 27.2367 90.2153 35.5605 90.208 44.2419ZM99.3475 25.7969H115.649C116.071 25.7687 116.493 25.8273 116.891 25.9691C117.289 26.1109 117.653 26.3329 117.962 26.6213C118.27 26.9098 118.516 27.2585 118.684 27.6459C118.852 28.0333 118.939 28.4511 118.939 28.8734C118.939 29.2957 118.852 29.7135 118.684 30.1009C118.516 30.4883 118.27 30.837 117.962 31.1255C117.653 31.4139 117.289 31.6359 116.891 31.7777C116.493 31.9195 116.071 31.9781 115.649 31.9499H104.657C104.036 31.9157 103.414 32.0085 102.83 32.2227C102.246 32.4369 101.711 32.768 101.26 33.1957C100.808 33.6234 100.448 34.1388 100.202 34.7103C99.9558 35.2818 99.8289 35.8974 99.8289 36.5196C99.8289 37.1418 99.9558 37.7575 100.202 38.329C100.448 38.9005 100.808 39.4158 101.26 39.8435C101.711 40.2712 102.246 40.6023 102.83 40.8165C103.414 41.0307 104.036 41.1236 104.657 41.0894H110.188C110.968 41.1417 111.699 41.4886 112.233 42.0598C112.768 42.631 113.065 43.3838 113.065 44.1659C113.065 44.9479 112.768 45.7007 112.233 46.2719C111.699 46.8431 110.968 47.19 110.188 47.2423H93.1255C93.0287 46.2606 92.9734 45.2513 92.9734 44.2419C92.9706 37.5529 95.2154 31.057 99.3475 25.7969ZM152.926 44.2419C152.917 51.6844 150.14 58.8574 145.135 64.3654C140.13 69.8735 133.254 73.3226 125.847 74.0418C118.439 74.761 111.029 72.6989 105.057 68.2565C99.0861 63.8142 94.9808 57.3094 93.5403 50.0077H110.243C111.743 49.9347 113.158 49.2873 114.194 48.1998C115.23 47.1122 115.808 45.6678 115.808 44.1659C115.808 42.6639 115.23 41.2195 114.194 40.1319C113.158 39.0444 111.743 38.397 110.243 38.324H104.712C104.462 38.3459 104.21 38.3156 103.972 38.2349C103.734 38.1541 103.516 38.0248 103.331 37.8551C103.145 37.6855 102.998 37.4791 102.896 37.2492C102.795 37.0193 102.743 36.7708 102.743 36.5196C102.743 36.2684 102.795 36.02 102.896 35.7901C102.998 35.5602 103.145 35.3538 103.331 35.1841C103.516 35.0144 103.734 34.8851 103.972 34.8044C104.21 34.7237 104.462 34.6933 104.712 34.7152H115.774C116.565 34.7537 117.356 34.6312 118.098 34.3549C118.84 34.0787 119.519 33.6547 120.092 33.1084C120.665 32.5621 121.122 31.9051 121.434 31.1771C121.746 30.4492 121.907 29.6654 121.907 28.8734C121.907 28.0814 121.746 27.2976 121.434 26.5697C121.122 25.8417 120.665 25.1846 120.092 24.6384C119.519 24.0921 118.84 23.6681 118.098 23.3918C117.356 23.1156 116.565 22.9931 115.774 23.0316H101.947C106.147 18.8977 111.474 16.0943 117.259 14.9722C123.045 13.8501 129.033 14.4591 134.474 16.7229C139.915 18.9868 144.568 22.805 147.85 27.6998C151.132 32.5946 152.898 38.3486 152.926 44.2419Z" fill="#16244D"/>
<path d="M132.628 34.7218H137.647C139.148 34.6488 140.562 34.0015 141.598 32.9139C142.634 31.8264 143.212 30.382 143.212 28.88C143.212 27.378 142.634 25.9336 141.598 24.8461C140.562 23.7585 139.148 23.1112 137.647 23.0382H132.628C131.837 22.9997 131.047 23.1222 130.304 23.3984C129.562 23.6747 128.884 24.0987 128.31 24.645C127.737 25.1912 127.28 25.8483 126.968 26.5763C126.656 27.3042 126.495 28.088 126.495 28.88C126.495 29.672 126.656 30.4558 126.968 31.1837C127.28 31.9117 127.737 32.5687 128.31 33.115C128.884 33.6613 129.562 34.0853 130.304 34.3615C131.047 34.6377 131.837 34.7603 132.628 34.7218ZM132.628 25.8035H137.647C138.428 25.8559 139.159 26.2027 139.693 26.7739C140.227 27.3451 140.524 28.098 140.524 28.88C140.524 29.662 140.227 30.4149 139.693 30.986C139.159 31.5572 138.428 31.9041 137.647 31.9565H132.628C132.207 31.9847 131.784 31.9261 131.387 31.7843C130.989 31.6425 130.624 31.4205 130.316 31.1321C130.007 30.8436 129.762 30.4949 129.593 30.1075C129.425 29.7201 129.339 29.3023 129.339 28.88C129.339 28.4577 129.425 28.0399 129.593 27.6525C129.762 27.2651 130.007 26.9164 130.316 26.6279C130.624 26.3395 130.989 26.1175 131.387 25.9757C131.784 25.8339 132.207 25.7753 132.628 25.8035ZM119.285 51.0098C119.284 52.0406 119.68 53.0322 120.391 53.7789C121.101 54.5255 122.072 54.9698 123.102 55.0196H123.254C123.584 55.0196 123.9 55.1507 124.134 55.3841C124.367 55.6174 124.498 55.934 124.498 56.264C124.498 56.594 124.367 56.9106 124.134 57.1439C123.9 57.3773 123.584 57.5084 123.254 57.5084H118.511C117.487 57.5686 116.524 58.0179 115.82 58.7646C115.115 59.5113 114.723 60.4988 114.723 61.5251C114.723 62.5514 115.115 63.5389 115.82 64.2856C116.524 65.0323 117.487 65.4817 118.511 65.5418H136.901C137.448 65.5739 137.996 65.4939 138.511 65.3065C139.027 65.1192 139.498 64.8285 139.897 64.4524C140.296 64.0763 140.614 63.6226 140.831 63.1192C141.048 62.6158 141.16 62.0733 141.16 61.5251C141.16 60.9769 141.048 60.4344 140.831 59.931C140.614 59.4276 140.296 58.974 139.897 58.5978C139.498 58.2217 139.027 57.931 138.511 57.7437C137.996 57.5564 137.448 57.4763 136.901 57.5084C136.592 57.4759 136.305 57.33 136.097 57.0989C135.889 56.8679 135.774 56.568 135.774 56.2571C135.774 55.9462 135.889 55.6463 136.097 55.4152C136.305 55.1842 136.592 55.0383 136.901 55.0058H141.699C142.723 54.9456 143.686 54.4963 144.39 53.7496C145.094 53.0029 145.487 52.0154 145.487 50.9891C145.487 49.9628 145.094 48.9752 144.39 48.2286C143.686 47.4819 142.723 47.0325 141.699 46.9724H123.309C122.779 46.9724 122.255 47.0769 121.766 47.28C121.277 47.483 120.833 47.7807 120.459 48.1558C120.085 48.5308 119.789 48.976 119.588 49.4658C119.386 49.9556 119.284 50.4803 119.285 51.0098ZM123.309 49.7654H141.699C142.008 49.7979 142.294 49.9438 142.502 50.1749C142.71 50.4059 142.825 50.7058 142.825 51.0167C142.825 51.3276 142.71 51.6275 142.502 51.8586C142.294 52.0896 142.008 52.2355 141.699 52.2681H136.901C135.876 52.3282 134.913 52.7776 134.209 53.5242C133.505 54.2709 133.113 55.2584 133.113 56.2847C133.113 57.3111 133.505 58.2986 134.209 59.0452C134.913 59.7919 135.876 60.2413 136.901 60.3014C137.076 60.283 137.253 60.3016 137.421 60.3561C137.589 60.4105 137.743 60.4997 137.874 60.6176C138.005 60.7356 138.11 60.8798 138.182 61.0409C138.254 61.202 138.291 61.3764 138.291 61.5528C138.291 61.7291 138.254 61.9035 138.182 62.0646C138.11 62.2257 138.005 62.3699 137.874 62.4879C137.743 62.6059 137.589 62.695 137.421 62.7495C137.253 62.8039 137.076 62.8225 136.901 62.8041H118.511C118.202 62.7715 117.916 62.6257 117.708 62.3946C117.5 62.1636 117.385 61.8637 117.385 61.5528C117.385 61.2419 117.5 60.942 117.708 60.7109C117.916 60.4798 118.202 60.334 118.511 60.3014H123.503C124.524 60.2414 125.483 59.7935 126.185 59.0494C126.886 58.3054 127.277 57.3213 127.277 56.2986C127.277 55.2759 126.886 54.2918 126.185 53.5477C125.483 52.8036 124.524 52.3557 123.503 52.2957H123.309C123.134 52.3142 122.956 52.2956 122.789 52.2411C122.621 52.1866 122.467 52.0975 122.335 51.9795C122.204 51.8615 122.1 51.7173 122.028 51.5562C121.956 51.3951 121.919 51.2207 121.919 51.0444C121.919 50.868 121.956 50.6937 122.028 50.5326C122.1 50.3715 122.204 50.2272 122.335 50.1093C122.467 49.9913 122.621 49.9022 122.789 49.8477C122.956 49.7932 123.134 49.7746 123.309 49.7931V49.7654ZM107.159 57.5361C106.363 57.5361 105.584 57.7724 104.922 58.2151C104.261 58.6579 103.745 59.2871 103.441 60.0231C103.137 60.7591 103.058 61.5689 103.214 62.3497C103.37 63.1306 103.755 63.8475 104.319 64.4097C104.883 64.9718 105.601 65.354 106.383 65.5076C107.164 65.6613 107.974 65.5797 108.709 65.273C109.444 64.9664 110.071 64.4485 110.512 63.785C110.952 63.1215 111.186 62.3422 111.183 61.5458C111.183 61.0181 111.079 60.4956 110.876 60.0082C110.674 59.5208 110.377 59.0781 110.004 58.7056C109.63 58.3331 109.186 58.038 108.698 57.8373C108.21 57.6366 107.687 57.5343 107.159 57.5361ZM107.159 62.8041C106.91 62.8041 106.667 62.7303 106.46 62.592C106.253 62.4538 106.092 62.2573 105.997 62.0274C105.902 61.7974 105.877 61.5444 105.925 61.3004C105.974 61.0563 106.094 60.8321 106.27 60.6561C106.446 60.4802 106.67 60.3603 106.914 60.3118C107.158 60.2632 107.411 60.2882 107.641 60.3834C107.871 60.4786 108.067 60.6399 108.206 60.8468C108.344 61.0537 108.418 61.297 108.418 61.5458C108.418 61.8796 108.285 62.1996 108.049 62.4356C107.813 62.6715 107.493 62.8041 107.159 62.8041ZM138.878 40.6535C138.875 41.4499 139.109 42.2292 139.549 42.8927C139.99 43.5562 140.617 44.074 141.352 44.3807C142.087 44.6874 142.897 44.769 143.678 44.6153C144.46 44.4616 145.178 44.0795 145.742 43.5174C146.306 42.9552 146.691 42.2383 146.847 41.4574C147.003 40.6765 146.924 39.8668 146.62 39.1308C146.316 38.3948 145.8 37.7656 145.138 37.3228C144.476 36.8801 143.698 36.6438 142.902 36.6438C141.837 36.6437 140.816 37.0658 140.061 37.8173C139.307 38.5689 138.882 39.5888 138.878 40.6535ZM144.146 40.6535C144.149 40.9035 144.077 41.1487 143.94 41.3577C143.803 41.5667 143.606 41.7302 143.376 41.8271C143.145 41.924 142.891 41.9501 142.646 41.902C142.4 41.8539 142.175 41.7338 141.998 41.557C141.821 41.3802 141.701 41.1547 141.653 40.9094C141.605 40.664 141.631 40.4099 141.728 40.1794C141.825 39.949 141.988 39.7526 142.197 39.6154C142.406 39.4782 142.652 39.4064 142.902 39.4091C143.231 39.4127 143.545 39.545 143.778 39.7776C144.01 40.0102 144.142 40.3246 144.146 40.6535Z" fill="#16244D"/>
</g>
<defs>
<clipPath id="clip0_4332_380">
<rect width="160" height="160" fill="white"/>
</clipPath>
<clipPath id="clip1_4332_380">
<rect width="143.017" height="143.017" fill="white" transform="translate(0 17)"/>
</clipPath>
</defs>
</svg>
