<svg width="295" height="173" viewBox="0 0 295 173" fill="none" xmlns="http://www.w3.org/2000/svg">
<path d="M102.095 131.688H76.3966H71.1167H45.4179C45.4179 131.688 19.9329 133.142 15.4688 159.316H68.0039H79.5094H132.045C127.58 133.141 102.095 131.688 102.095 131.688Z" fill="#9B5A40"/>
<path opacity="0.4" d="M74.0183 152.875C39.2201 152.875 24.4228 141.266 24.4228 141.266C20.3282 145.329 16.8666 151.102 15.4688 159.301H68.0039H79.5094H132.045C130.881 152.477 128.288 147.333 125.09 143.458C125.09 143.458 108.816 152.875 74.0183 152.875Z" fill="#9B5A40"/>
<path d="M132.656 161.723H15.3911C14.1574 161.723 13.1484 160.495 13.1484 158.994C13.1484 157.494 14.1574 156.266 15.3911 156.266H132.656C133.889 156.266 134.898 157.494 134.898 158.994C134.898 160.496 133.889 161.723 132.656 161.723Z" fill="#683924"/>
<path opacity="0.4" d="M132.656 158.989H15.3911C14.5676 158.989 13.8519 158.436 13.4617 157.625C13.2679 158.028 13.1484 158.491 13.1484 158.989C13.1484 160.49 14.1574 161.718 15.3911 161.718H132.656C133.889 161.718 134.898 160.49 134.898 158.989C134.898 158.491 134.779 158.028 134.585 157.625C134.195 158.435 133.479 158.989 132.656 158.989Z" fill="#9B5A40"/>
<path d="M138.208 167.701H9.83609C8.48542 167.701 7.38086 166.357 7.38086 164.714C7.38086 163.071 8.48542 161.727 9.83609 161.727H138.208C139.558 161.727 140.663 163.071 140.663 164.714C140.663 166.357 139.558 167.701 138.208 167.701Z" fill="#FF8216"/>
<path opacity="0.4" d="M138.208 164.72H9.83609C8.93435 164.72 8.15082 164.114 7.72385 163.227C7.51134 163.668 7.38086 164.175 7.38086 164.72C7.38086 166.363 8.48542 167.707 9.83609 167.707H138.208C139.558 167.707 140.663 166.363 140.663 164.72C140.663 164.175 140.533 163.668 140.32 163.227C139.893 164.114 139.11 164.72 138.208 164.72Z" fill="#9B5A40"/>
<path d="M269.532 161.3C269.532 161.3 153.308 102.348 136.627 93.4069C119.946 84.4667 126.561 89.7919 119.325 87.6589C113.496 85.9401 116.127 79.905 117.37 77.6244C118.353 75.2179 121.367 69.3688 126.342 72.8878C132.516 77.2551 124.266 75.3745 141.606 82.9255C158.946 90.4764 277.189 145.18 277.189 145.18C277.189 145.18 288.778 148.63 287.538 156.858L286.826 158.601L286.931 158.652L286.429 159.574L286.031 160.548L285.926 160.497L285.025 162.148C279.446 168.275 269.532 161.3 269.532 161.3Z" fill="#7F4933"/>
<path opacity="0.57" d="M271.32 157.517C271.32 157.517 154.634 99.5379 137.802 90.9155C120.97 82.2931 127.959 86.8295 120.967 84.1848C115.333 82.0537 116.671 78.7421 117.403 77.535C117.876 76.2025 119.597 73.0763 124.768 76.183C131.185 80.038 123.309 77.3686 140.499 85.238C157.688 93.1073 275.468 148.785 275.468 148.785C275.468 148.785 286.673 153.042 286.996 157.981L286.653 158.946L286.759 158.997L286.462 159.485L286.271 160.024L286.166 159.973L285.635 160.847C281.618 163.684 271.32 157.517 271.32 157.517Z" fill="#9B5A40"/>
<path opacity="0.4" d="M127.824 74.0486C123.358 76.7696 121.923 82.8061 121.538 88.16C120.982 88.0876 120.275 87.9388 119.325 87.6589C113.496 85.9401 116.127 79.905 117.37 77.6244C118.353 75.2179 121.367 69.3688 126.342 72.8878C126.975 73.3361 127.451 73.7152 127.824 74.0486Z" fill="#683924"/>
<path d="M98.4424 22.8892C98.4424 22.8892 103.748 17.4498 101.376 13.2763C100.876 12.398 100.416 11.6372 100.296 10.5919C99.8958 7.11461 103.391 2.9548 106.959 4.7812C108.17 5.40109 116.841 9.50935 123.81 12.969C130.842 16.2962 139.44 20.5591 140.675 21.1248C144.318 22.794 143.293 28.1505 140.357 30.0108C139.475 30.57 138.599 30.6836 137.608 30.8402C132.901 31.5827 132.02 39.1663 132.02 39.1663L124.2 37.2003L115.047 32.7631L114.007 32.2587L104.854 27.8223L98.4424 22.8892Z" fill="#683924"/>
<path opacity="0.55" d="M98.4424 22.864C98.4424 22.864 103.748 17.4247 101.376 13.2511C101.109 12.7826 100.859 12.3454 100.661 11.8828L139.112 30.522C138.631 30.6551 138.136 30.7315 137.608 30.815C132.901 31.5575 132.02 39.1411 132.02 39.1411L124.2 37.1751L104.854 27.7971L98.4424 22.864Z" fill="#683924"/>
<path opacity="0.55" d="M98.4424 22.9095C98.4424 22.9095 100.587 20.7027 101.538 18.0234L133.856 33.6898C132.382 36.1152 132.02 39.1859 132.02 39.1859L124.199 37.2199L104.853 27.8419L98.4424 22.9095Z" fill="#683924"/>
<path d="M101.181 8.06103C101.181 8.06103 103.627 4.05718 107.858 6.10804L139.761 21.5727L139.539 22.4243L107.683 8.69658C107.683 8.69658 103.455 6.01799 101.181 8.06103Z" fill="#9B5A40"/>
<path d="M63.2448 96.9766C63.2448 96.9766 62.3638 104.56 57.6568 105.303C56.6665 105.459 55.7906 105.572 54.9083 106.131C51.9725 107.991 50.9474 113.348 54.5898 115.017C55.8262 115.584 64.4237 119.846 71.4554 123.173C78.4245 126.633 87.0956 130.741 88.3061 131.361C91.8736 133.187 95.3688 129.028 94.9683 125.55C94.8482 124.505 94.3876 123.744 93.889 122.866C91.5171 118.692 96.8222 113.253 96.8222 113.253L90.4112 108.32L81.2582 103.883L80.2182 103.378L71.0652 98.9413L63.2448 96.9766Z" fill="#683924"/>
<path opacity="0.55" d="M63.2451 96.9766C63.2451 96.9766 62.3641 104.56 57.6571 105.303C57.1293 105.386 56.6345 105.463 56.1533 105.596L94.6043 124.234C94.406 123.772 94.1554 123.334 93.8899 122.866C91.518 118.692 96.8232 113.253 96.8232 113.253L90.4122 108.32L71.0662 98.9419L63.2451 96.9766Z" fill="#683924"/>
<path opacity="0.55" d="M63.2427 96.9766C63.2427 96.9766 62.8809 100.047 61.4062 102.473L93.7247 118.139C94.6755 115.46 96.82 113.253 96.82 113.253L90.4091 108.32L71.0631 98.9419L63.2427 96.9766Z" fill="#683924"/>
<path d="M53.511 108.406C53.511 108.406 51.9498 112.839 56.1807 114.89L88.0838 130.354L88.6031 129.647L58.0707 113.132C58.0707 113.132 53.3566 111.477 53.511 108.406Z" fill="#9B5A40"/>
<path d="M58.4245 91.2899L70.596 65.6661L78.8673 48.2537L91.0387 22.6299C91.0387 22.6299 93.8228 16.7703 98.9767 19.2682C100.882 20.1921 104.847 22.1138 109.087 24.1692C116.318 27.6746 124.352 31.5688 124.352 31.5688C128.592 33.6242 132.557 35.5459 134.462 36.4699C139.616 38.9683 136.833 44.8286 136.833 44.8286L124.661 70.4524L116.389 87.8648L104.217 113.489C104.217 113.489 101.434 119.348 96.2793 116.85C94.3744 115.926 90.4096 114.004 86.169 111.949C86.169 111.949 78.1354 108.054 70.9041 104.549C66.6641 102.494 62.6993 100.571 60.7938 99.648C55.6411 97.1501 58.4245 91.2899 58.4245 91.2899Z" fill="#9B5A40"/>
<path opacity="0.57" d="M88.0832 28.8359L78.8681 48.2353L70.5969 65.6478L61.3818 85.0465L107.176 107.245L116.391 87.8464L124.662 70.4333L133.877 51.0346L88.0832 28.8359Z" fill="#9B5A40"/>
<path opacity="0.55" d="M89.1979 26.5404L88.085 28.8828L133.875 51.085L134.988 48.7426L89.1979 26.5404Z" fill="#FF8216"/>
<path opacity="0.55" d="M88.6444 27.7115L88.0879 28.8828L133.883 51.085L134.44 49.9137L88.6444 27.7115Z" fill="#FF8216"/>
<path opacity="0.55" d="M61.3842 85.0636L60.2715 87.4062L106.067 109.603L107.179 107.26L61.3842 85.0636Z" fill="#FF8216"/>
<path opacity="0.55" d="M61.3905 85.0709L60.834 86.2422L106.629 108.444L107.185 107.273L61.3905 85.0709Z" fill="#FF8216"/>
<path opacity="0.4" d="M62.4537 100.452L60.7949 99.6483C55.6409 97.1498 58.4243 91.2895 58.4243 91.2895L91.0392 22.6296C91.0392 22.6296 93.8226 16.77 98.9772 19.2685L100.636 20.0724L62.4537 100.452Z" fill="#683924"/>
<path opacity="0.4" d="M133.162 35.8281L134.465 36.4598C139.619 38.9583 136.835 44.8185 136.835 44.8185L104.22 113.478C104.22 113.478 101.436 119.338 96.2817 116.84L94.9795 116.208L133.162 35.8281Z" fill="#683924"/>
<path opacity="0.57" d="M105.502 22.4377L67.3223 102.82L70.6372 104.427L108.817 24.0444L105.502 22.4377Z" fill="#9B5A40"/>
</svg>
