<svg width="160" height="160" viewBox="0 0 160 160" fill="none" xmlns="http://www.w3.org/2000/svg">
<path d="M150 70H10V130H150V70Z" fill="#809EAD"/>
<path d="M65 60V50C65 47.3478 66.0536 44.8043 67.9289 42.9289C69.8043 41.0536 72.3478 40 75 40H85C87.6522 40 90.1957 41.0536 92.0711 42.9289C93.9464 44.8043 95 47.3478 95 50V60M107.5 60V50C107.5 47.3478 108.554 44.8043 110.429 42.9289C112.304 41.0536 114.848 40 117.5 40H127.5C130.152 40 132.696 41.0536 134.571 42.9289C136.446 44.8043 137.5 47.3478 137.5 50V60M20 60V50C20 47.3478 21.0536 44.8043 22.9289 42.9289C24.8043 41.0536 27.3478 40 30 40H40C42.6522 40 45.1957 41.0536 47.0711 42.9289C48.9464 44.8043 50 47.3478 50 50V60" fill="#959A8F"/>
<path d="M35 60L30 47.5L35 40L40 47.5L35 60Z" fill="#FFC60B"/>
<path d="M80 60L75 47.5L80 40L85 47.5L80 60Z" fill="#FFC60B"/>
<path d="M122.5 60L117.5 47.5L122.5 40L127.5 47.5L122.5 60Z" fill="#FFC60B"/>
<path d="M150 130H10C7.23858 130 5 132.239 5 135C5 137.761 7.23858 140 10 140H150C152.761 140 155 137.761 155 135C155 132.239 152.761 130 150 130Z" fill="#9C7761"/>
<path d="M150 60H10C7.23858 60 5 62.2386 5 65C5 67.7614 7.23858 70 10 70H150C152.761 70 155 67.7614 155 65C155 62.2386 152.761 60 150 60Z" fill="#9C7761"/>
<path d="M95 80H65V120H95V80Z" fill="#BDBDB0"/>
<path d="M52.5 80H22.5V120H52.5V80Z" fill="#BDBDB0"/>
<path d="M137.5 80H107.5V120H137.5V80Z" fill="#BDBDB0"/>
<path d="M80 35C84.1421 35 87.5 31.6421 87.5 27.5C87.5 23.3579 84.1421 20 80 20C75.8579 20 72.5 23.3579 72.5 27.5C72.5 31.6421 75.8579 35 80 35Z" fill="#F5E0CD"/>
<path d="M122.5 35C126.642 35 130 31.6421 130 27.5C130 23.3579 126.642 20 122.5 20C118.358 20 115 23.3579 115 27.5C115 31.6421 118.358 35 122.5 35Z" fill="#F5E0CD"/>
<path d="M35 35C39.1421 35 42.5 31.6421 42.5 27.5C42.5 23.3579 39.1421 20 35 20C30.8579 20 27.5 23.3579 27.5 27.5C27.5 31.6421 30.8579 35 35 35Z" fill="#F5E0CD"/>
</svg>
