<svg width="160" height="160" viewBox="0 0 160 160" fill="none" xmlns="http://www.w3.org/2000/svg">
<path d="M64.7974 76.8906C64.7974 87.4309 54.9549 95.97 42.8097 95.97C30.6657 95.97 20.8232 87.4309 20.8232 76.8906H64.7974Z" fill="#FFF036"/>
<path d="M73.1591 118.139L84.7037 15.5048C85.2083 11.0088 88.5019 11.0088 89.0077 15.5048L100.551 118.139C100.851 120.814 99.8053 123.345 98.3985 123.345H75.3117C73.905 123.345 72.8588 120.814 73.1591 118.139Z" fill="#FFD2B3"/>
<path d="M76.1812 118.68L85.1781 26.6334C85.572 22.6014 88.1381 22.6014 88.532 26.6334L97.5289 118.68C97.7627 121.08 96.948 123.35 95.8514 123.35H77.8575C76.7621 123.35 75.9461 121.079 76.1812 118.68Z" fill="#F3BD8E"/>
<path d="M140.679 24.295L33.2823 28.9535C32.9719 28.967 32.6618 28.9193 32.3699 28.813C32.0779 28.7067 31.8097 28.5439 31.5807 28.3339C31.3516 28.124 31.1662 27.871 31.035 27.5893C30.9037 27.3077 30.8293 27.003 30.8158 26.6925L30.7678 25.5935C30.7408 24.9668 30.9638 24.355 31.3878 23.8927C31.8118 23.4304 32.402 23.1554 33.0287 23.1282L140.426 18.471C140.736 18.4575 141.046 18.5052 141.338 18.6115C141.63 18.7178 141.898 18.8806 142.127 19.0905C142.356 19.3005 142.542 19.5535 142.673 19.8351C142.804 20.1168 142.879 20.4215 142.892 20.7319L142.94 21.8298C142.967 22.4565 142.744 23.0683 142.32 23.5306C141.896 23.9929 141.306 24.2678 140.679 24.295Z" fill="#F3BD8E"/>
<path d="M86.8545 28.3328C89.0609 28.3328 90.8495 26.268 90.8495 23.7211C90.8495 21.1741 89.0609 19.1094 86.8545 19.1094C84.648 19.1094 82.8594 21.1741 82.8594 23.7211C82.8594 26.268 84.648 28.3328 86.8545 28.3328Z" fill="#FFF036"/>
<path d="M115.733 126.904H110.172V125.569C110.172 124.339 108.502 123.344 106.443 123.344H67.2639C65.2049 123.344 63.5359 124.341 63.5359 125.569V126.904H57.9753C55.9162 126.904 54.2461 127.901 54.2461 129.13V134.636C54.2461 135.864 55.9162 136.861 57.9753 136.861H115.733C117.792 136.861 119.462 135.864 119.462 134.636V129.13C119.462 127.9 117.792 126.904 115.733 126.904Z" fill="#F3BD8E"/>
<path d="M119.461 129.453V134.641C119.461 135.869 117.793 136.869 115.732 136.869H57.9766C55.9138 136.869 54.2461 135.869 54.2461 134.641V129.453C54.2461 130.681 55.9138 131.682 57.9766 131.682H115.729C117.792 131.682 119.46 130.681 119.46 129.454L119.461 129.453Z" fill="#E2A374"/>
<path d="M65.4267 76.8906C65.4267 87.4309 55.583 95.97 43.4353 95.97C31.4846 95.97 21.7615 87.7042 21.46 77.4063C25.4329 82.3503 32.0446 85.5959 39.5227 85.5959C47.2569 85.5959 54.0667 82.1226 57.9793 76.8906H65.4267Z" fill="#FBE000"/>
<path d="M157.119 72.5391C157.119 83.0794 147.278 91.6184 135.133 91.6184C122.989 91.6184 113.146 83.0794 113.146 72.5391H157.119Z" fill="#FFF036"/>
<path d="M157.752 72.5391C157.752 83.0794 147.908 91.6184 135.761 91.6184C123.81 91.6184 114.088 83.3526 113.785 73.0548C117.758 77.9988 124.37 81.2443 131.848 81.2443C139.582 81.2443 146.392 77.7711 150.305 72.5391H157.751H157.752Z" fill="#FBE000"/>
<path d="M32.5584 73.2248C30.2532 73.9805 30.8119 76.9614 31.0421 79.167C31.2439 81.1104 31.8138 83.0882 31.3289 84.9811C30.391 88.6341 25.1529 89.839 21.5787 91.0427C18.5842 92.0507 14.8452 93.2568 11.2612 95.2938C3.77317 99.5522 1.00517 109.041 6.32825 115.814C6.91286 116.558 7.97378 117.59 8.85378 117.891C10.0932 118.313 12.0833 116.969 12.1522 115.663C12.1818 115.075 11.8938 114.525 11.6119 114.008L10.2039 111.417C9.3904 109.919 8.54609 108.293 9.05317 106.563C9.39901 105.379 10.5522 104.499 11.7522 104.783C13.4409 105.182 13.7276 107.417 13.6562 109.144L12.5522 136.223C12.5264 136.865 12.503 137.529 12.7246 138.133C13.2747 139.622 15.2562 140.221 16.7246 139.614C18.1929 139.007 19.1319 137.509 19.5024 135.965C19.8729 134.42 19.7658 132.809 19.6993 131.224C19.5261 127.028 19.6647 122.825 20.1141 118.65C20.2433 117.449 20.919 115.864 22.0882 116.168C22.9584 116.393 23.175 117.507 23.2402 118.403C23.658 124.056 24.7323 129.641 26.4415 135.045C26.8009 136.182 27.2095 137.347 28.0119 138.229C29.2255 139.565 31.5738 140.111 32.7073 137.743C33.1356 136.849 33.1996 135.825 33.0495 134.846C31.5198 124.849 30.9055 114.734 31.2144 104.625C31.2796 102.493 31.3867 100.349 31.8605 98.2673C32.311 96.2796 33.1061 94.3497 34.3492 92.735C35.0556 91.8181 36.6753 88.8051 36.9695 88.3264C38.327 86.1196 38.7024 76.9344 36.8833 74.6968C35.8396 73.4131 34.1301 72.7091 32.5584 73.2248Z" fill="white"/>
<path d="M17.4585 93.3998C22.2099 93.3998 26.0616 89.5012 26.0616 84.6921C26.0616 79.8829 22.2099 75.9844 17.4585 75.9844C12.7072 75.9844 8.85547 79.8829 8.85547 84.6921C8.85547 89.5012 12.7072 93.3998 17.4585 93.3998Z" fill="white"/>
<path d="M6.40682 73.6035C7.44313 72.6682 5.98344 71.3217 5.13913 72.262C3.39267 74.2066 2.25667 76.2399 2.00436 78.8922C1.75944 81.3463 2.40805 83.702 3.28436 85.8583C1.96744 80.838 2.53605 76.9328 6.40682 73.6035ZM155.687 71.6171L136.056 25.4263C137.73 25.3525 140.647 25.2294 140.721 25.2294H140.733C141.607 25.1925 142.407 24.8109 142.998 24.1586C143.601 23.5186 143.896 22.6817 143.859 21.7956L143.822 20.7002C143.773 19.8263 143.404 19.014 142.751 18.4232C142.099 17.8202 141.262 17.5125 140.388 17.5617L90.4068 19.7279C89.9761 18.1771 90.493 11.2109 86.8499 11.2109C83.2068 11.2109 83.7237 18.3002 83.2807 19.9248C83.2437 19.9617 83.2191 19.9986 83.1822 20.0356C26.5422 22.8663 30.3822 20.5032 29.8899 26.7432C29.9884 28.5032 31.3914 29.8817 33.1761 29.8817C33.2991 29.8817 40.6222 29.574 41.1268 29.5494L22.4068 75.974H21.4961C15.3914 73.0079 7.93298 77.5125 7.93298 84.6879C7.93298 88.4294 10.0622 91.6909 13.1637 93.2786C-6.51626 102.509 6.44374 124.786 12.4007 117.34C11.5637 137.98 10.7514 139.088 13.7791 140.417C14.8868 140.897 16.1176 140.872 17.0776 140.466C22.6037 138.214 19.6499 131.531 21.0284 118.756C21.0899 118.128 21.5453 116.922 21.853 117.069C22.813 117.279 21.7791 123.346 25.5576 135.322C26.4561 138.116 27.9699 140.676 30.8991 140.269C32.8068 139.974 34.4437 137.82 33.9637 134.706C32.733 126.657 30.2714 102.559 33.9268 95.334C36.6591 96.3432 39.6622 96.8971 42.813 96.8971C55.4407 96.8971 65.7176 87.9248 65.7176 76.8971C65.7176 76.3925 65.3114 75.974 64.7945 75.974H63.3668L43.5761 29.4386C66.8991 28.4294 59.1576 28.7617 82.3945 27.7525C72.4745 119.777 71.133 118.854 72.893 122.423H67.2684C64.6591 122.423 62.6161 123.814 62.6161 125.574V125.992H57.9761C55.3668 125.992 53.3237 127.371 53.3237 129.131V134.645C53.3237 136.405 55.3668 137.796 57.9761 137.796H115.736C118.345 137.796 120.388 136.405 120.388 134.645V129.131C120.388 124.934 112.364 126.177 111.096 125.992V125.574C111.096 123.814 109.053 122.423 106.444 122.423H100.819C102.53 118.965 101.324 120.565 91.2684 27.3709C117.225 26.2509 107.318 26.6694 133.299 25.5494L114.727 71.6171H113.151C109.619 71.6171 114.431 92.5402 135.133 92.5402C147.773 92.5402 158.05 83.5679 158.05 72.5402C158.05 71.2232 156.253 71.7156 155.687 71.6171ZM24.1299 77.8202H29.0284C29.0284 81.414 31.3422 84.9956 26.4068 88.0109C27.6868 84.4171 26.8007 80.4786 24.1299 77.8202ZM9.77913 84.6879C9.77913 79.4079 14.8991 75.6171 19.9084 77.3155C23.6376 78.5832 25.8653 82.5709 24.9299 86.4725C22.9361 95.3955 9.77913 93.894 9.77913 84.6879ZM12.5484 113.796C12.5237 113.746 11.0468 111.026 11.0222 110.977C10.173 109.426 9.55759 108.134 9.93913 106.829C10.1976 105.968 10.9976 105.525 11.5391 105.685C12.7699 105.98 12.6468 110.362 12.5484 113.796ZM33.5699 92.2448C33.4099 92.5032 33.2499 92.7617 33.1022 93.0079C32.7699 93.5617 32.4745 94.1032 32.2161 94.6325C28.3884 102.362 30.8376 126.472 32.1422 134.989C32.2284 135.617 32.2653 136.528 31.8714 137.352C31.1453 138.866 29.6807 138.706 28.6961 137.611C26.6161 135.346 24.573 123.962 24.1668 118.337C23.8345 113.968 19.6622 114.251 19.1945 118.559C18.1237 128.442 19.2684 133.082 18.6037 135.752C18.1114 137.82 16.4622 139.556 14.5176 138.731C13.4099 138.226 13.4468 137.426 13.4714 136.269C13.693 112.922 16.6345 104.996 11.9699 103.888C10.2714 103.506 8.65913 104.639 8.16682 106.312C7.39144 108.959 9.13913 111.408 10.8007 114.448C11.3422 115.42 11.5268 115.925 10.4314 116.663C9.8899 117.02 9.39759 117.106 9.15144 117.02C8.52374 116.811 7.60067 115.949 7.05913 115.248C2.09913 108.959 4.67144 100.109 11.7237 96.0971C13.053 95.3463 14.4068 94.7063 15.7484 94.1525C18.8745 94.7802 22.4191 93.6602 24.733 90.8909C30.9607 88.2817 31.9207 85.3402 31.133 80.1955C31.0099 79.3955 30.8868 78.5956 30.8868 77.8202C30.8868 76.2448 31.3422 74.5955 32.8437 74.1032C34.0991 73.6848 35.7853 74.3371 36.5976 75.974C36.8561 76.4663 37.0776 77.094 37.2622 77.8202C37.9637 80.5648 38.0007 84.6632 36.1668 87.8755L35.9822 88.2079C35.3914 89.2294 34.5053 90.7802 33.5699 92.2448ZM63.8468 77.8202C63.293 87.4079 54.0622 95.0509 42.813 95.0509C39.9945 95.0509 37.2991 94.5709 34.8499 93.7094C37.1637 89.734 40.8561 85.4263 39.1699 77.8202H63.8468ZM61.3607 75.974H38.6161C36.7576 70.9525 30.4191 70.7802 29.2253 75.974H24.3884L42.3945 31.3463L61.3607 75.974ZM31.7361 26.6571C31.7484 26.3986 31.3053 24.1217 33.0653 24.0602L82.2099 21.9309C81.8284 23.1617 81.8407 24.5402 82.333 25.9063C34.0253 27.3832 31.8591 29.4263 31.7361 26.6571ZM86.8499 13.0571C88.1668 13.0571 88.2653 17.7956 88.413 18.4725C87.4284 18.1032 86.3207 18.0909 85.2991 18.4725C85.4468 17.7709 85.5453 13.0571 86.8499 13.0571ZM86.8499 20.0356C89.2499 20.0356 90.6899 23.1494 89.4961 25.5986C89.4222 25.7463 88.0068 27.4079 86.8499 27.4079C82.8622 27.4079 82.7761 20.0356 86.8499 20.0356ZM109.25 125.574V126.916C109.25 128.503 111.638 127.58 115.736 127.839C117.447 127.839 118.542 128.602 118.542 129.131V134.645C118.542 135.174 117.447 135.949 115.736 135.949C63.8099 135.285 55.1699 137.217 55.1699 134.645V129.131C55.1699 127.199 61.7914 127.999 63.5391 127.839C64.8561 127.839 64.3761 126.042 64.4622 125.574C64.4622 123.506 71.773 124.528 75.3176 124.269H98.3945C101.939 124.528 109.25 123.506 109.25 125.574ZM98.3945 122.423C74.2222 122.263 75.3791 122.719 74.8991 122.165C72.8314 119.826 74.3822 119.026 84.1914 28.3679C84.9608 28.9442 85.8968 29.2547 86.8581 29.2525C87.8194 29.2503 88.754 28.9355 89.5207 28.3556C98.4314 112.688 101.422 122.423 98.3945 122.423ZM91.5022 25.5125C91.8837 24.2694 91.8714 22.854 91.3668 21.5248L140.462 19.3956H140.536C140.907 19.3964 141.264 19.5401 141.532 19.7967C141.8 20.0533 141.959 20.4033 141.976 20.774L142.013 21.8817C142.038 22.2632 141.902 22.6325 141.644 22.9156C141.385 23.1986 141.028 23.3709 140.635 23.3832L91.5022 25.5125ZM134.715 26.9894L153.681 71.6171H116.708L134.715 26.9894ZM135.133 90.694C123.884 90.694 114.653 83.0509 114.099 73.4632H156.167C155.613 83.0509 146.395 90.694 135.133 90.694ZM10.3514 144.438C8.81803 144.594 7.29086 144.806 5.77298 145.074C12.301 145.213 16.3441 146.512 15.9416 144.453C15.8431 143.949 14.4967 143.978 10.3514 144.438ZM29.1084 146.717C29.2831 148.465 31.3877 147.057 46.0597 145.947C31.8653 146.135 28.9127 144.767 29.1084 146.717ZM112.139 146.893C102.802 147.067 93.4677 147.378 84.141 148.247C93.4899 148.831 102.829 148.853 112.167 148.74C121.503 148.567 130.838 148.258 140.164 147.383C130.817 146.797 121.475 146.775 112.139 146.893ZM92.8241 144.145C102.161 143.974 111.495 143.665 120.822 142.79C111.473 142.204 102.132 142.182 92.7958 142.3C83.4591 142.472 74.125 142.784 64.7982 143.654C74.1459 144.236 83.4874 144.258 92.8241 144.145Z" fill="#553045"/>
</svg>
