<svg width="160" height="160" viewBox="0 0 160 160" fill="none" xmlns="http://www.w3.org/2000/svg">
<path d="M102.174 47.4985H57.1736L44.3036 16.7585C43.828 15.8064 43.6686 14.7274 43.8487 13.6785C44.0287 12.6295 44.5387 11.6654 45.3045 10.9264C46.0703 10.1873 47.052 9.7119 48.1067 9.5693C49.1613 9.4267 50.234 9.62435 51.1686 10.1335L58.1036 13.9185C60 14.9526 62.1802 15.3448 64.3181 15.0366C66.456 14.7283 68.4366 13.7362 69.9636 12.2085L72.6036 9.56849C74.4789 7.69378 77.0219 6.64062 79.6736 6.64062C82.3252 6.64062 84.8683 7.69378 86.7436 9.56849L89.3836 12.2085C90.9106 13.7362 92.8912 14.7283 95.0291 15.0366C97.167 15.3448 99.3472 14.9526 101.244 13.9185L108.179 10.1335C109.113 9.62435 110.186 9.4267 111.24 9.5693C112.295 9.7119 113.277 10.1873 114.043 10.9264C114.808 11.6654 115.318 12.6295 115.498 13.6785C115.679 14.7274 115.519 15.8064 115.044 16.7585L102.174 47.4985ZM110.924 157.498H47.7736C41.0829 157.499 34.5841 155.262 29.3105 151.144C24.0369 147.027 20.2911 141.265 18.6686 134.773L18.5936 134.473C15.7886 123.261 16.0241 111.503 19.2759 100.412C22.5277 89.3202 28.6782 79.2965 37.0936 71.3735L51.8486 57.4985H111.849L125.114 71.6485C132.548 79.5781 137.875 89.2453 140.607 99.7656C143.339 110.286 143.39 121.324 140.754 131.868L140.029 134.773C138.406 141.265 134.66 147.027 129.387 151.144C124.113 155.262 117.614 157.499 110.924 157.498Z" fill="#F8A839"/>
<path d="M79.3496 137.5C95.9182 137.5 109.35 124.069 109.35 107.5C109.35 90.9315 95.9182 77.5 79.3496 77.5C62.7811 77.5 49.3496 90.9315 49.3496 107.5C49.3496 124.069 62.7811 137.5 79.3496 137.5Z" fill="#FEDC55"/>
<path d="M107.456 46.7578H52.6356C49.6699 46.7578 47.2656 49.162 47.2656 52.1278V52.8328C47.2656 55.7986 49.6699 58.2028 52.6356 58.2028H107.456C110.421 58.2028 112.826 55.7986 112.826 52.8328V52.1278C112.826 49.162 110.421 46.7578 107.456 46.7578Z" fill="#E1762E"/>
<path d="M79.9991 74.9879C73.5712 74.9879 67.2876 76.894 61.943 80.4652C56.5985 84.0363 52.4328 89.1121 49.973 95.0507C47.5131 100.989 46.8695 107.524 48.1236 113.828C49.3776 120.133 52.4729 125.924 57.0181 130.469C61.5633 135.014 67.3543 138.109 73.6586 139.363C79.963 140.617 86.4977 139.974 92.4363 137.514C98.3749 135.054 103.451 130.889 107.022 125.544C110.593 120.199 112.499 113.916 112.499 107.488C112.488 98.8717 109.061 90.6113 102.968 84.5187C96.8757 78.426 88.6154 74.9985 79.9991 74.9879ZM79.9991 134.988C74.5601 134.988 69.2432 133.375 64.7209 130.353C60.1985 127.332 56.6738 123.037 54.5924 118.012C52.511 112.987 51.9664 107.457 53.0275 102.123C54.0886 96.7885 56.7077 91.8885 60.5536 88.0425C64.3996 84.1966 69.2996 81.5774 74.6341 80.5164C79.9686 79.4553 85.4979 79.9999 90.5229 82.0813C95.5478 84.1627 99.8427 87.6874 102.864 92.2098C105.886 96.7321 107.499 102.049 107.499 107.488C107.49 114.779 104.59 121.768 99.4343 126.923C94.279 132.078 87.2897 134.979 79.9991 134.988ZM127.594 69.933L114.459 55.933C115.022 54.8767 115.321 53.6998 115.329 52.503C115.329 50.5138 114.539 48.6062 113.132 47.1997C111.726 45.7931 109.818 45.003 107.829 45.003H106.584L117.934 17.883C118.649 16.4545 118.889 14.835 118.62 13.2605C118.35 11.686 117.585 10.2387 116.435 9.12946C115.286 8.02019 113.812 7.30689 112.229 7.09347C110.646 6.88006 109.036 7.17767 107.634 7.94296L100.699 11.723C99.2756 12.4932 97.6419 12.7847 96.0399 12.5541C94.4378 12.3236 92.9526 11.5833 91.8041 10.443L89.1691 7.80296C88.0083 6.64187 86.6302 5.72084 85.1134 5.09245C83.5966 4.46406 81.9709 4.14062 80.3291 4.14062C78.6873 4.14063 77.0616 4.46406 75.5448 5.09245C74.028 5.72084 72.6499 6.64187 71.4891 7.80296L68.8541 10.443C67.7043 11.5812 66.2192 12.32 64.6178 12.5505C63.0163 12.7809 61.3832 12.4908 59.9591 11.723L52.9991 7.92796C51.6104 7.17931 50.021 6.88763 48.457 7.09441C46.893 7.3012 45.434 7.99591 44.2876 9.07974C43.1412 10.1636 42.3657 11.5813 42.0716 13.1313C41.7774 14.6812 41.9795 16.2845 42.6491 17.713L54.0691 44.988H52.8241C51.2804 44.9795 49.7721 45.4498 48.5068 46.3341C47.2415 47.2184 46.2814 48.4732 45.7589 49.9258C45.2363 51.3784 45.1769 52.9572 45.5888 54.4449C46.0008 55.9326 46.8638 57.2561 48.0591 58.233L36.0591 69.5479C27.2945 77.8197 20.8972 88.2814 17.5281 99.8524C14.1589 111.423 13.9401 123.684 16.8941 135.368C18.6436 142.404 22.6993 148.652 28.4141 153.114C34.1288 157.577 41.1735 159.997 48.4241 159.988H111.574C118.824 159.997 125.868 157.578 131.583 153.116C137.298 148.655 141.354 142.408 143.104 135.373L143.834 132.468C146.597 121.519 146.557 110.051 143.719 99.1217C140.88 88.1924 135.335 78.154 127.594 69.933ZM47.1891 15.628C46.9497 15.1516 46.8689 14.6111 46.9585 14.0856C47.048 13.56 47.3032 13.0768 47.6869 12.7066C48.0705 12.3364 48.5624 12.0985 49.0909 12.0276C49.6193 11.9568 50.1565 12.0568 50.6241 12.313L57.5591 16.093C59.9294 17.3777 62.6498 17.8666 65.319 17.4876C67.9883 17.1085 70.4651 15.8817 72.3841 13.988L74.9991 11.328C75.6956 10.631 76.5226 10.0781 77.4328 9.70092C78.3431 9.32371 79.3188 9.12956 80.3041 9.12956C81.2894 9.12956 82.2651 9.32371 83.1753 9.70092C84.0856 10.0781 84.9126 10.631 85.6091 11.328L88.2441 13.968C90.1595 15.8665 92.6346 17.099 95.304 17.4834C97.9734 17.8679 100.696 17.3839 103.069 16.103L109.999 12.318C110.463 12.0503 111.003 11.9439 111.534 12.0154C112.065 12.0869 112.557 12.3321 112.934 12.713C113.341 13.1017 113.604 13.6162 113.682 14.1733C113.76 14.7304 113.648 15.2975 113.364 15.783L101.159 44.988H59.4991L47.1891 15.628ZM52.8241 49.988H107.824C108.487 49.988 109.123 50.2513 109.592 50.7202C110.061 51.189 110.324 51.8249 110.324 52.488C110.324 53.151 110.061 53.7869 109.592 54.2557C109.123 54.7246 108.487 54.988 107.824 54.988H52.8241C52.161 54.988 51.5252 54.7246 51.0563 54.2557C50.5875 53.7869 50.3241 53.151 50.3241 52.488C50.3241 51.8249 50.5875 51.189 51.0563 50.7202C51.5252 50.2513 52.161 49.988 52.8241 49.988ZM138.999 131.253L138.269 134.158C136.788 140.114 133.354 145.402 128.515 149.178C123.676 152.954 117.712 154.999 111.574 154.988H48.4241C42.2401 154.98 36.2387 152.891 31.3856 149.058C26.5326 145.226 23.1101 139.872 21.6691 133.858C18.9803 123.076 19.212 111.772 22.3405 101.109C25.4689 90.4457 31.3811 80.8084 39.4691 73.188L53.4991 59.9879H111.414L123.944 73.3479C131.115 80.9583 136.254 90.2526 138.885 100.373C141.516 110.493 141.555 121.113 138.999 131.253ZM77.4991 94.9879H82.4991C83.8252 94.9879 85.0969 95.5147 86.0346 96.4524C86.9723 97.3901 87.4991 98.6619 87.4991 99.9879C87.4991 100.651 87.7625 101.287 88.2313 101.756C88.7002 102.225 89.336 102.488 89.9991 102.488C90.6621 102.488 91.298 102.225 91.7668 101.756C92.2357 101.287 92.4991 100.651 92.4991 99.9879C92.4991 97.3358 91.4455 94.7922 89.5701 92.9169C87.6948 91.0415 85.1512 89.9879 82.4991 89.9879V87.4879C82.4991 86.8249 82.2357 86.189 81.7668 85.7202C81.298 85.2513 80.6621 84.9879 79.9991 84.9879C79.336 84.9879 78.7002 85.2513 78.2313 85.7202C77.7625 86.189 77.4991 86.8249 77.4991 87.4879V89.9879C74.8469 89.9879 72.3034 91.0415 70.428 92.9169C68.5527 94.7922 67.4991 97.3358 67.4991 99.9879C67.4991 102.64 68.5527 105.184 70.428 107.059C72.3034 108.934 74.8469 109.988 77.4991 109.988H82.4991C83.8252 109.988 85.0969 110.515 86.0346 111.452C86.9723 112.39 87.4991 113.662 87.4991 114.988C87.4991 116.314 86.9723 117.586 86.0346 118.523C85.0969 119.461 83.8252 119.988 82.4991 119.988H77.4991C76.173 119.988 74.9012 119.461 73.9635 118.523C73.0259 117.586 72.4991 116.314 72.4991 114.988C72.4991 114.325 72.2357 113.689 71.7668 113.22C71.298 112.751 70.6621 112.488 69.9991 112.488C69.336 112.488 68.7002 112.751 68.2313 113.22C67.7625 113.689 67.4991 114.325 67.4991 114.988C67.4991 117.64 68.5527 120.184 70.428 122.059C72.3034 123.934 74.8469 124.988 77.4991 124.988V127.488C77.4991 128.151 77.7625 128.787 78.2313 129.256C78.7002 129.725 79.336 129.988 79.9991 129.988C80.6621 129.988 81.298 129.725 81.7668 129.256C82.2357 128.787 82.4991 128.151 82.4991 127.488V124.988C85.1512 124.988 87.6948 123.934 89.5701 122.059C91.4455 120.184 92.4991 117.64 92.4991 114.988C92.4991 112.336 91.4455 109.792 89.5701 107.917C87.6948 106.042 85.1512 104.988 82.4991 104.988H77.4991C76.173 104.988 74.9012 104.461 73.9635 103.523C73.0259 102.586 72.4991 101.314 72.4991 99.9879C72.4991 98.6619 73.0259 97.3901 73.9635 96.4524C74.9012 95.5147 76.173 94.9879 77.4991 94.9879Z" fill="black"/>
</svg>
