<svg width="160" height="160" viewBox="0 0 160 160" fill="none" xmlns="http://www.w3.org/2000/svg">
<path d="M62.5 20H92.5C96.655 20 100 23.35 100 27.5V37.5H55V27.5C55 23.35 58.345 20 62.5 20Z" stroke="#F9AA36" stroke-width="5" stroke-linecap="round" stroke-linejoin="round"/>
<path d="M2.51027e-05 35H155V127.5C155 134.425 149.425 140 142.5 140H12.5C10.8576 140.003 9.23064 139.682 7.71259 139.055C6.19453 138.428 4.81523 137.508 3.65384 136.346C2.49245 135.185 1.57184 133.805 0.94482 132.287C0.317803 130.769 -0.00326969 129.142 2.51027e-05 127.5V47.5V35Z" fill="#0C5286"/>
<path d="M0 59.1797V64.1797C0 68.3347 2.5 70.3397 7.5 71.6797C17.85 74.4547 57.6 83.2247 57.6 83.2247L94.735 83.4747C94.735 83.4747 135.705 74.8397 147.5 71.6797C152.5 70.3397 155 68.3347 155 64.1797V59.1797C155 63.3347 152.5 65.3397 147.5 66.6797C135.705 69.8397 94.735 78.4797 94.735 78.4797L57.6 78.2247C57.6 78.2247 17.85 69.4547 7.5 66.6797C2.5 65.3397 0 63.3347 0 59.1797Z" fill="#406B95"/>
<path d="M57.595 78.22C57.595 78.22 17.845 69.44 7.5 66.67C2.5 65.325 0 63.32 0 59.17V35H155V59.165C155 63.32 152.5 65.325 147.5 66.665C135.705 69.825 94.735 78.465 94.735 78.465" fill="#0C5286"/>
<path d="M77.4354 65.0049C80.0669 64.9976 82.674 65.5095 85.1074 66.5112C87.5408 67.513 89.7528 68.9845 91.6166 70.8423C93.4804 72.7 94.9594 74.9075 95.9691 77.3376C96.9787 79.7678 97.4991 82.3733 97.5004 85.0049C97.5004 96.0649 88.5354 105 77.4354 105C74.8099 105.007 72.209 104.494 69.7828 103.491C67.3567 102.487 65.1533 101.014 63.2998 99.1541C61.4464 97.2946 59.9797 95.0863 58.9843 92.6569C57.9889 90.2274 57.4845 87.6254 57.5004 85C57.5004 73.92 66.3304 65.0049 77.4354 65.0049Z" fill="#F9BC36"/>
<path d="M97.5001 85C97.5001 96.04 88.5051 105 77.4401 105C74.8166 104.999 72.2191 104.481 69.7963 103.475C67.3734 102.469 65.1728 100.995 63.3206 99.137C61.4683 97.2792 60.0008 95.0742 59.002 92.6484C58.0032 90.2225 57.4928 87.6234 57.5001 85C57.5001 73.965 66.3751 65 77.4401 65C82.7512 64.996 87.8467 67.1 91.6078 70.8498C95.369 74.5997 97.4882 79.6889 97.5001 85Z" stroke="#F9AA36" stroke-width="5" stroke-miterlimit="34.178" stroke-linecap="round" stroke-linejoin="round"/>
<path d="M75.0212 70V72.75C74.0227 73.025 73.0825 73.479 72.2463 74.09C69.8063 75.82 68.5212 78.91 69.4362 81.935C70.4762 85.545 73.9262 87.565 77.3462 87.5H77.6863C77.7063 87.5002 77.7262 87.5002 77.7462 87.5C79.0312 87.465 80.4662 88.4 80.7612 89.445C80.7677 89.4618 80.7744 89.4784 80.7813 89.495C81.0063 90.22 80.5813 91.345 79.8663 91.845C79.846 91.8614 79.826 91.878 79.8062 91.895C78.4762 92.89 75.9063 92.58 74.9613 91.27C74.7022 90.9077 74.5593 90.4753 74.5513 90.03H69.5513C69.5513 91.555 70.0413 93.01 70.9113 94.21C71.9713 95.69 73.4262 96.675 75.0212 97.19V100H80.0212V97.25C80.9862 96.97 81.9212 96.55 82.7562 95.93C85.2062 94.2 86.4762 91.11 85.5562 88.08C84.5162 84.475 81.0763 82.46 77.6563 82.52H77.3162C77.2962 82.5197 77.2763 82.5197 77.2563 82.52C75.9713 82.555 74.5363 81.62 74.2413 80.58C74.2349 80.5599 74.2281 80.5399 74.2212 80.52C73.9962 79.795 74.4212 78.675 75.1362 78.175C75.1565 78.1586 75.1765 78.142 75.1962 78.125C76.5262 77.135 79.0962 77.43 80.0312 78.74C80.0346 78.74 80.0379 78.74 80.0412 78.74C80.3 79.0986 80.4431 79.5278 80.4512 79.97L85.4512 80.01C85.4507 78.5033 84.9709 77.0359 84.0812 75.82C83.0781 74.4224 81.6562 73.3804 80.0212 72.845V70H75.0212Z" fill="#F9AA36"/>
</svg>
