<svg width="110" height="110" viewBox="0 0 110 110" fill="none" xmlns="http://www.w3.org/2000/svg">
<g clip-path="url(#clip0_4367_452)">
<path d="M1.082 74.969C3.35075 85.7147 11.8354 98.4472 25.1032 101.009C28.3621 101.605 31.7101 101.502 34.9264 100.709C38.1428 99.915 41.1542 98.4483 43.762 96.4053C46.7272 94.1819 49.1322 91.2967 50.7853 87.9797C52.4385 84.6626 53.2941 81.0053 53.2841 77.2991C53.2741 73.593 52.3987 69.9404 50.7276 66.6323C49.0566 63.3242 46.636 60.4521 43.6589 58.2447C40.598 55.8591 36.9928 54.2707 33.1666 53.6222C29.3405 52.9736 25.4131 53.2851 21.7371 54.5288C21.5588 54.5933 21.3673 54.6125 21.1798 54.5846C20.9923 54.5567 20.8146 54.4826 20.6629 54.369C20.5074 54.2522 20.3835 54.0986 20.3022 53.9221C20.2209 53.7455 20.1848 53.5515 20.1971 53.3575C21.2704 29.6044 42.5726 20.3179 46.8326 18.6972C47.5001 18.4438 48.0614 17.9707 48.4243 17.3557C48.7871 16.7408 48.9298 16.0206 48.8289 15.3138C48.8289 15.3138 48.2858 11.3255 48.2849 11.3203C48.2118 10.8505 48.0351 10.403 47.7674 10.01C47.4998 9.61714 47.148 9.28878 46.7376 9.04882C46.3272 8.80885 45.8685 8.6633 45.3948 8.62275C44.9212 8.58219 44.4444 8.64765 43.9992 8.81436C-4.61308 28.549 -1.14034 64.4391 1.082 74.969ZM44.9273 12.1487L45.3922 15.5673C40.3202 17.5396 17.9137 27.6854 16.7604 53.2019C16.7218 53.9545 16.8688 54.705 17.1885 55.3873C17.5081 56.0697 17.9907 56.663 18.5936 57.115C19.1965 57.567 19.9013 57.8638 20.646 57.9793C21.3906 58.0948 22.1522 58.0254 22.8637 57.7772C26.0031 56.7207 29.3556 56.46 32.6205 57.0184C35.8855 57.5768 38.9608 58.9369 41.5706 60.9767C44.1282 62.8639 46.2085 65.3236 47.6451 68.1589C49.0818 70.9942 49.8347 74.1264 49.8438 77.3049C49.8529 80.4834 49.1179 83.6199 47.6976 86.4634C46.2772 89.3068 44.211 91.7784 41.6643 93.6802C39.4433 95.4271 36.8769 96.6828 34.1346 97.3642C31.3924 98.0457 28.5367 98.1374 25.7564 97.6333C14.0276 95.368 6.48919 83.9289 4.44732 74.2583C2.37021 64.4151 -0.832686 30.908 44.9265 12.1479L44.9273 12.1487Z" fill="#FF8216"/>
<path d="M34.9818 91.0952C35.1925 91.0141 35.3851 90.8923 35.5488 90.7368C35.7124 90.5812 35.8438 90.395 35.9354 90.1887C36.0271 89.9823 36.0772 89.76 36.0829 89.5343C36.0886 89.3086 36.0498 89.084 35.9688 88.8733C35.8877 88.6626 35.7659 88.4699 35.6103 88.3063C35.4548 88.1427 35.2685 88.0113 35.0622 87.9196C34.8559 87.828 34.6335 87.7779 34.4078 87.7721C34.1822 87.7664 33.9575 87.8052 33.7468 87.8863C33.6824 87.9121 27.3479 90.2797 23.6638 85.7224C23.5219 85.5467 23.3468 85.4008 23.1484 85.2928C22.9501 85.1848 22.7324 85.1169 22.5079 85.0931C22.2833 85.0692 22.0563 85.0898 21.8397 85.1537C21.6231 85.2176 21.4212 85.3235 21.2455 85.4655C21.0699 85.6074 20.9239 85.7825 20.8159 85.9808C20.7079 86.1792 20.6401 86.3968 20.6162 86.6214C20.5923 86.8459 20.6129 87.073 20.6768 87.2896C20.7407 87.5062 20.8466 87.7081 20.9886 87.8837C26.2299 94.3651 34.6268 91.2319 34.9818 91.0952ZM81.822 101.009C85.0808 101.605 88.4289 101.502 91.6452 100.709C94.8615 99.915 97.873 98.4483 100.481 96.4053C103.446 94.1819 105.851 91.2967 107.504 87.9797C109.157 84.6626 110.013 81.0053 110.003 77.2991C109.993 73.593 109.117 69.9404 107.446 66.6323C105.775 63.3242 103.355 60.4521 100.378 58.2447C97.3168 55.8591 93.7115 54.2707 89.8854 53.6222C86.0592 52.9736 82.1319 53.2851 78.4558 54.5288C78.2776 54.5933 78.086 54.6125 77.8985 54.5846C77.711 54.5567 77.5334 54.4826 77.3816 54.369C77.2262 54.2522 77.1022 54.0986 77.0209 53.9221C76.9396 53.7455 76.9035 53.5515 76.9158 53.3575C77.9892 29.6044 99.2914 20.3179 103.551 18.6972C104.219 18.4438 104.78 17.9707 105.143 17.3557C105.506 16.7408 105.649 16.0206 105.548 15.3138C105.548 15.3138 105.005 11.3255 105.004 11.3203C104.931 10.8505 104.754 10.403 104.486 10.01C104.219 9.61714 103.867 9.28878 103.456 9.04882C103.046 8.80885 102.587 8.6633 102.114 8.62275C101.64 8.58219 101.163 8.64765 100.718 8.81436C52.1057 28.549 55.5784 64.4391 57.8007 74.969C60.0695 85.7147 68.5541 98.4472 81.822 101.009ZM101.646 12.1479L102.113 15.5673C97.0398 17.5396 74.6333 27.6854 73.4801 53.2019C73.4414 53.9545 73.5884 54.705 73.9081 55.3873C74.2277 56.0697 74.7103 56.663 75.3132 57.115C75.9161 57.567 76.621 57.8638 77.3656 57.9793C78.1102 58.0948 78.8718 58.0254 79.5833 57.7772C82.7227 56.7207 86.0752 56.46 89.3402 57.0184C92.6051 57.5768 95.6804 58.9369 98.2902 60.9767C100.848 62.8639 102.928 65.3236 104.365 68.1589C105.801 70.9942 106.554 74.1264 106.563 77.3049C106.573 80.4834 105.838 83.6199 104.417 86.4634C102.997 89.3068 100.931 91.7784 98.3839 93.6802C96.1629 95.4271 93.5965 96.6828 90.8542 97.3642C88.112 98.0457 85.2563 98.1374 82.476 97.6333C70.7472 95.368 63.2088 83.9289 61.1669 74.2583C59.0898 64.4151 55.8869 30.908 101.646 12.1479Z" fill="#FF8216"/>
<path d="M91.701 91.0927C91.9117 91.0117 92.1044 90.8899 92.268 90.7343C92.4317 90.5788 92.5631 90.3925 92.6547 90.1862C92.7464 89.9799 92.7965 89.7575 92.8022 89.5318C92.8079 89.3061 92.7691 89.0815 92.688 88.8708C92.6069 88.6601 92.4851 88.4675 92.3296 88.3038C92.1741 88.1402 91.9878 88.0088 91.7815 87.9172C91.5752 87.8255 91.3528 87.7754 91.1271 87.7697C90.9014 87.764 90.6768 87.8028 90.4661 87.8838C90.4017 87.9096 84.0672 90.2772 80.3831 85.7199C80.0898 85.3752 79.6753 85.1564 79.2252 85.1086C78.7752 85.0607 78.324 85.1876 77.9648 85.463C77.7892 85.6048 77.6432 85.7799 77.5352 85.9781C77.4272 86.1764 77.3594 86.394 77.3355 86.6185C77.3117 86.8429 77.3323 87.0699 77.3962 87.2865C77.46 87.503 77.5659 87.7048 77.7078 87.8804C82.9492 94.3627 91.3461 91.2294 91.701 91.0927Z" fill="#FF8216"/>
</g>
<defs>
<clipPath id="clip0_4367_452">
<rect width="110" height="110" fill="white" transform="matrix(-1 0 0 -1 110 110)"/>
</clipPath>
</defs>
</svg>
