<svg width="110" height="110" viewBox="0 0 110 110" fill="none" xmlns="http://www.w3.org/2000/svg">
<g clip-path="url(#clip0_4367_456)">
<path d="M108.918 74.969C106.649 85.7147 98.1646 98.4472 84.8968 101.009C81.6379 101.605 78.2899 101.502 75.0736 100.709C71.8572 99.915 68.8458 98.4483 66.238 96.4053C63.2728 94.1819 60.8678 91.2967 59.2147 87.9797C57.5615 84.6626 56.7059 81.0053 56.7159 77.2991C56.7259 73.593 57.6013 69.9404 59.2724 66.6323C60.9434 63.3242 63.364 60.4521 66.3411 58.2447C69.402 55.8591 73.0072 54.2707 76.8334 53.6222C80.6595 52.9736 84.5869 53.2851 88.2629 54.5288C88.4412 54.5933 88.6327 54.6125 88.8202 54.5846C89.0077 54.5567 89.1854 54.4826 89.3371 54.369C89.4926 54.2522 89.6165 54.0986 89.6978 53.9221C89.7791 53.7455 89.8152 53.5515 89.8029 53.3575C88.7296 29.6044 67.4274 20.3179 63.1674 18.6972C62.4999 18.4438 61.9386 17.9707 61.5757 17.3557C61.2129 16.7408 61.0702 16.0206 61.1711 15.3138C61.1711 15.3138 61.7142 11.3255 61.7151 11.3203C61.7882 10.8505 61.9649 10.403 62.2326 10.01C62.5002 9.61714 62.852 9.28878 63.2624 9.04882C63.6728 8.80885 64.1315 8.6633 64.6052 8.62275C65.0788 8.58219 65.5556 8.64765 66.0008 8.81436C114.613 28.549 111.14 64.4391 108.918 74.969ZM65.0727 12.1487L64.6078 15.5673C69.6798 17.5396 92.0863 27.6854 93.2396 53.2019C93.2782 53.9545 93.1312 54.705 92.8115 55.3873C92.4919 56.0697 92.0093 56.663 91.4064 57.115C90.8035 57.567 90.0987 57.8638 89.354 57.9793C88.6094 58.0948 87.8478 58.0254 87.1363 57.7772C83.9969 56.7207 80.6444 56.46 77.3795 57.0184C74.1145 57.5768 71.0392 58.9369 68.4294 60.9767C65.8718 62.8639 63.7915 65.3236 62.3549 68.1589C60.9182 70.9942 60.1653 74.1264 60.1562 77.3049C60.1471 80.4834 60.8821 83.6199 62.3024 86.4634C63.7228 89.3068 65.789 91.7784 68.3357 93.6802C70.5567 95.4271 73.1231 96.6828 75.8654 97.3642C78.6076 98.0457 81.4633 98.1374 84.2436 97.6333C95.9724 95.368 103.511 83.9289 105.553 74.2583C107.63 64.4151 110.833 30.908 65.0735 12.1479L65.0727 12.1487Z" fill="#FF8216"/>
<path d="M75.0182 91.0952C74.8075 91.0141 74.6149 90.8923 74.4512 90.7368C74.2876 90.5812 74.1562 90.395 74.0646 90.1887C73.9729 89.9823 73.9228 89.76 73.9171 89.5343C73.9114 89.3086 73.9502 89.084 74.0312 88.8733C74.1123 88.6626 74.2341 88.4699 74.3897 88.3063C74.5452 88.1427 74.7315 88.0113 74.9378 87.9196C75.1441 87.828 75.3665 87.7779 75.5922 87.7721C75.8178 87.7664 76.0425 87.8052 76.2532 87.8863C76.3176 87.9121 82.6521 90.2797 86.3362 85.7224C86.4781 85.5467 86.6532 85.4008 86.8516 85.2928C87.0499 85.1848 87.2676 85.1169 87.4921 85.0931C87.7167 85.0692 87.9437 85.0898 88.1603 85.1537C88.3769 85.2176 88.5788 85.3235 88.7545 85.4655C88.9301 85.6074 89.0761 85.7825 89.1841 85.9808C89.2921 86.1792 89.3599 86.3968 89.3838 86.6214C89.4077 86.8459 89.3871 87.073 89.3232 87.2896C89.2593 87.5062 89.1534 87.7081 89.0114 87.8837C83.7701 94.3651 75.3732 91.2319 75.0182 91.0952ZM28.178 101.009C24.9192 101.605 21.5711 101.502 18.3548 100.709C15.1385 99.915 12.127 98.4483 9.51925 96.4053C6.55406 94.1819 4.1491 91.2967 2.49595 87.9797C0.842793 84.6626 -0.0128583 81.0053 -0.00284277 77.2991C0.00717279 73.593 0.882578 69.9404 2.55363 66.6323C4.22469 63.3242 6.64521 60.4521 9.62237 58.2447C12.6832 55.8591 16.2885 54.2707 20.1146 53.6222C23.9408 52.9736 27.8681 53.2851 31.5442 54.5288C31.7224 54.5933 31.914 54.6125 32.1015 54.5846C32.289 54.5567 32.4666 54.4826 32.6184 54.369C32.7738 54.2522 32.8978 54.0986 32.9791 53.9221C33.0604 53.7455 33.0965 53.5515 33.0842 53.3575C32.0108 29.6044 10.7086 20.3179 6.4487 18.6972C5.78118 18.4438 5.2198 17.9707 4.85696 17.3557C4.49412 16.7408 4.35143 16.0206 4.45237 15.3138C4.45237 15.3138 4.9955 11.3255 4.99636 11.3203C5.06942 10.8505 5.24619 10.403 5.51383 10.01C5.78147 9.61714 6.13327 9.28878 6.54366 9.04882C6.95406 8.80885 7.41275 8.6633 7.88642 8.62275C8.36009 8.58219 8.83685 8.64765 9.28206 8.81436C57.8943 28.549 54.4216 64.4391 52.1993 74.969C49.9305 85.7147 41.4459 98.4472 28.178 101.009ZM8.35393 12.1479L7.88729 15.5673C12.9602 17.5396 35.3667 27.6854 36.5199 53.2019C36.5586 53.9545 36.4116 54.705 36.0919 55.3873C35.7723 56.0697 35.2897 56.663 34.6868 57.115C34.0839 57.567 33.379 57.8638 32.6344 57.9793C31.8898 58.0948 31.1282 58.0254 30.4167 57.7772C27.2773 56.7207 23.9248 56.46 20.6598 57.0184C17.3949 57.5768 14.3196 58.9369 11.7098 60.9767C9.1522 62.8639 7.07185 65.3236 5.63525 68.1589C4.19864 70.9942 3.44565 74.1264 3.43655 77.3049C3.42745 80.4834 4.16248 83.6199 5.58282 86.4634C7.00316 89.3068 9.06938 91.7784 11.6161 93.6802C13.8371 95.4271 16.4035 96.6828 19.1458 97.3642C21.888 98.0457 24.7437 98.1374 27.524 97.6333C39.2528 95.368 46.7912 83.9289 48.8331 74.2583C50.9102 64.4151 54.1131 30.908 8.35393 12.1479Z" fill="#FF8216"/>
<path d="M18.299 91.0927C18.0883 91.0117 17.8956 90.8899 17.732 90.7343C17.5683 90.5788 17.4369 90.3925 17.3453 90.1862C17.2536 89.9799 17.2035 89.7575 17.1978 89.5318C17.1921 89.3061 17.2309 89.0815 17.312 88.8708C17.3931 88.6601 17.5149 88.4675 17.6704 88.3038C17.8259 88.1402 18.0122 88.0088 18.2185 87.9172C18.4248 87.8255 18.6472 87.7754 18.8729 87.7697C19.0986 87.764 19.3232 87.8028 19.5339 87.8838C19.5983 87.9096 25.9328 90.2772 29.6169 85.7199C29.9102 85.3752 30.3247 85.1564 30.7748 85.1086C31.2248 85.0607 31.676 85.1876 32.0352 85.463C32.2108 85.6048 32.3568 85.7799 32.4648 85.9781C32.5728 86.1764 32.6406 86.394 32.6645 86.6185C32.6883 86.8429 32.6677 87.0699 32.6038 87.2865C32.54 87.503 32.4341 87.7048 32.2922 87.8804C27.0508 94.3627 18.6539 91.2294 18.299 91.0927Z" fill="#FF8216"/>
</g>
<defs>
<clipPath id="clip0_4367_456">
<rect width="110" height="110" fill="white" transform="matrix(1 0 0 -1 0 110)"/>
</clipPath>
</defs>
</svg>
