<svg width="163" height="149" viewBox="0 0 163 149" fill="none" xmlns="http://www.w3.org/2000/svg">
<circle cx="89" cy="74" r="74" fill="#FFE6D0"/>
<g clip-path="url(#clip0_2365_115)">
<path d="M104.644 83.3731C104.886 85.2382 105.005 87.1173 105 88.9981C105 99.4125 101.389 109.505 94.7804 117.554C88.1721 125.603 78.9765 131.111 68.7614 133.139C58.5463 135.167 47.9441 133.588 38.7624 128.673C29.5808 123.758 22.3882 115.811 18.4109 106.186C14.4336 96.5606 13.9179 85.854 16.9517 75.8913C19.9855 65.9285 26.3809 57.3265 35.0477 51.5517C43.7144 45.7769 54.1158 43.187 64.4786 44.2235C74.8413 45.26 84.5237 49.8587 91.875 57.2356" stroke="#FF8216" stroke-width="3.94369" stroke-linecap="round" stroke-linejoin="round"/>
<path d="M92.9063 81.5054C93.4728 83.965 93.7558 86.4814 93.75 89.0054C93.7487 96.9991 90.9102 104.733 85.7398 110.829C80.5695 116.926 73.403 120.989 65.5168 122.296C57.6306 123.603 49.5365 122.068 42.6762 117.965C35.8159 113.861 30.6347 107.456 28.0553 99.8903C25.4759 92.3241 25.6658 84.088 28.5913 76.6488C31.5167 69.2096 36.9876 63.0502 44.0298 59.2677C51.072 55.4851 59.2282 54.3249 67.0458 55.9937C74.8634 57.6625 81.8349 62.052 86.7188 68.3804" stroke="#FF8216" stroke-width="3.94369" stroke-linecap="round" stroke-linejoin="round"/>
<path d="M78.75 87.1223C78.75 87.7411 78.75 88.3598 78.75 88.9973C78.7506 93.3432 77.2416 97.5544 74.4809 100.911C71.7202 104.267 67.8793 106.56 63.6149 107.398C59.3505 108.236 54.9275 107.567 51.1021 105.504C47.2767 103.442 44.2866 100.115 42.6428 96.0917C40.9991 92.0686 40.804 87.5995 42.0907 83.4484C43.3775 79.2974 46.0663 75.7222 49.6973 73.3342C53.3284 70.9463 57.6762 69.8938 61.9974 70.3567C66.3186 70.8197 70.3447 72.7693 73.3875 75.8723" stroke="#FF8216" stroke-width="3.94369" stroke-linecap="round" stroke-linejoin="round"/>
<path d="M60 94.625C63.1066 94.625 65.625 92.1066 65.625 89C65.625 85.8934 63.1066 83.375 60 83.375C56.8934 83.375 54.375 85.8934 54.375 89C54.375 92.1066 56.8934 94.625 60 94.625Z" stroke="#FF8216" stroke-width="3.94369" stroke-linecap="round" stroke-linejoin="round"/>
<path d="M60 89L105.675 67.1562" stroke="#FF8216" stroke-width="3.94369" stroke-linecap="round" stroke-linejoin="round"/>
<path d="M90.4512 74.4219L92.2887 65.2344L105.02 57.0781L103.989 67.9531" stroke="#FF8216" stroke-width="3.94369" stroke-linecap="round" stroke-linejoin="round"/>
<path d="M90.4512 74.4297L98.7574 78.7797L113.101 73.9984L103.989 67.9609" stroke="#FF8216" stroke-width="3.94369" stroke-linecap="round" stroke-linejoin="round"/>
</g>
<defs>
<clipPath id="clip0_2365_115">
<rect width="120" height="120" fill="white" transform="translate(0 29)"/>
</clipPath>
</defs>
</svg>
